<svg xmlns="http://www.w3.org/2000/svg" width="1200" height="300" viewBox="0 0 1200 300">
<title>Ship it. Secure it. Make it smarter.</title>
<defs>
<radialGradient id="flameHot" cx=".5" cy=".95" r=".85" fx=".5" fy="1">
  <stop offset="0" stop-color="#fffbe0"/><stop offset=".18" stop-color="#ffd25a"/>
  <stop offset=".42" stop-color="#ff7a10"/><stop offset=".7" stop-color="#d42a04"/>
  <stop offset="1" stop-color="#7a0800" stop-opacity="0"/>
</radialGradient>
<radialGradient id="flameDeep" cx=".5" cy=".95" r=".85" fx=".5" fy="1">
  <stop offset="0" stop-color="#ff9a2a"/><stop offset=".35" stop-color="#e2360a"/>
  <stop offset=".7" stop-color="#8f1003"/><stop offset="1" stop-color="#3a0300" stop-opacity="0"/>
</radialGradient>
<linearGradient id="metal" x1="0" y1="1" x2="0" y2="0">
  <stop offset="0" stop-color="#fff1b8"/><stop offset=".3" stop-color="#ffb21f"/>
  <stop offset=".62" stop-color="#ff4a0a"/><stop offset="1" stop-color="#7c0b02"/>
</linearGradient>
<filter id="emberGlow" x="-50%" y="-50%" width="200%" height="200%">
  <feGaussianBlur stdDeviation="2.2" result="b"/>
  <feMerge><feMergeNode in="b"/><feMergeNode in="b"/><feMergeNode in="SourceGraphic"/></feMerge>
</filter>


<filter id="fire" x="-10%" y="-40%" width="120%" height="150%">
  <feTurbulence type="fractalNoise" baseFrequency="0.012 0.05" numOctaves="3" seed="4" result="n">
    <animate attributeName="baseFrequency" values="0.012 0.05;0.016 0.075;0.012 0.05" dur="2.6s" repeatCount="indefinite"/>
  </feTurbulence>
  <feDisplacementMap in="SourceGraphic" in2="n" scale="44" xChannelSelector="R" yChannelSelector="G" result="d"/>
  <feGaussianBlur in="d" stdDeviation="1.6"/>
</filter>

<filter id="fireSoft" x="-10%" y="-40%" width="120%" height="150%">
  <feTurbulence type="fractalNoise" baseFrequency="0.012 0.05" numOctaves="3" seed="4" result="n">
    <animate attributeName="baseFrequency" values="0.012 0.05;0.016 0.075;0.012 0.05" dur="3.4s" repeatCount="indefinite"/>
  </feTurbulence>
  <feDisplacementMap in="SourceGraphic" in2="n" scale="28" xChannelSelector="R" yChannelSelector="G" result="d"/>
  <feGaussianBlur in="d" stdDeviation="3"/>
</filter>
<clipPath id="frame"><rect width="1200" height="300" rx="16"/></clipPath>
<linearGradient id="sky" x1="0" y1="0" x2="0" y2="1"><stop offset="0" stop-color="#050102"/><stop offset=".45" stop-color="#1c0303"/><stop offset="1" stop-color="#5c0e02"/></linearGradient>
<filter id="hot" x="-10%" y="-60%" width="120%" height="220%">
  <feGaussianBlur stdDeviation="5" result="b"/>
  <feColorMatrix in="b" type="matrix" values="1 0 0 0 0  0 .4 0 0 0  0 0 0 0 0  0 0 0 1.2 0" result="g"/>
  <feMerge><feMergeNode in="g"/><feMergeNode in="SourceGraphic"/></feMerge>
</filter>
</defs>
<g clip-path="url(#frame)">
<rect width="1200" height="300" fill="url(#sky)"/>
<g filter="url(#fireSoft)" opacity=".9"><path d="M0 0 C-68.5 -66.1 -24.0 -136.6 0 -220.3 C24.0 -136.6 68.5 -66.1 0 0Z" fill="url(#flameDeep)" transform="translate(15.1 320)"><animateTransform attributeName="transform" type="scale" additive="sum" values="1 1;0.91 1.26;1.05 .92;1 1" dur="1.28s" begin="-0.68s" repeatCount="indefinite"/></path>
<path d="M0 0 C-45.8 -54.0 -16.0 -111.6 0 -180.0 C16.0 -111.6 45.8 -54.0 0 0Z" fill="url(#flameDeep)" transform="translate(31.3 320)"><animateTransform attributeName="transform" type="scale" additive="sum" values="1 1;0.90 1.16;1.05 .92;1 1" dur="1.42s" begin="-0.12s" repeatCount="indefinite"/></path>
<path d="M0 0 C-52.6 -55.8 -18.4 -115.4 0 -186.1 C18.4 -115.4 52.6 -55.8 0 0Z" fill="url(#flameDeep)" transform="translate(96.4 320)"><animateTransform attributeName="transform" type="scale" additive="sum" values="1 1;0.89 1.16;1.05 .92;1 1" dur="1.93s" begin="-1.51s" repeatCount="indefinite"/></path>
<path d="M0 0 C-59.7 -58.8 -20.9 -121.5 0 -195.9 C20.9 -121.5 59.7 -58.8 0 0Z" fill="url(#flameDeep)" transform="translate(136.5 320)"><animateTransform attributeName="transform" type="scale" additive="sum" values="1 1;0.89 1.34;1.05 .92;1 1" dur="2.17s" begin="-0.80s" repeatCount="indefinite"/></path>
<path d="M0 0 C-59.8 -50.5 -20.9 -104.3 0 -168.3 C20.9 -104.3 59.8 -50.5 0 0Z" fill="url(#flameDeep)" transform="translate(180.3 320)"><animateTransform attributeName="transform" type="scale" additive="sum" values="1 1;0.90 1.33;1.05 .92;1 1" dur="1.29s" begin="-0.76s" repeatCount="indefinite"/></path>
<path d="M0 0 C-59.3 -46.9 -20.7 -97.0 0 -156.4 C20.7 -97.0 59.3 -46.9 0 0Z" fill="url(#flameDeep)" transform="translate(220.4 320)"><animateTransform attributeName="transform" type="scale" additive="sum" values="1 1;0.88 1.35;1.05 .92;1 1" dur="1.38s" begin="-0.27s" repeatCount="indefinite"/></path>
<path d="M0 0 C-43.0 -43.1 -15.0 -89.0 0 -143.5 C15.0 -89.0 43.0 -43.1 0 0Z" fill="url(#flameDeep)" transform="translate(253.0 320)"><animateTransform attributeName="transform" type="scale" additive="sum" values="1 1;0.91 1.36;1.05 .92;1 1" dur="1.48s" begin="-0.49s" repeatCount="indefinite"/></path>
<path d="M0 0 C-48.7 -50.2 -17.0 -103.8 0 -167.4 C17.0 -103.8 48.7 -50.2 0 0Z" fill="url(#flameDeep)" transform="translate(306.5 320)"><animateTransform attributeName="transform" type="scale" additive="sum" values="1 1;0.90 1.21;1.05 .92;1 1" dur="1.98s" begin="-0.21s" repeatCount="indefinite"/></path>
<path d="M0 0 C-61.2 -64.4 -21.4 -133.0 0 -214.6 C21.4 -133.0 61.2 -64.4 0 0Z" fill="url(#flameDeep)" transform="translate(365.6 320)"><animateTransform attributeName="transform" type="scale" additive="sum" values="1 1;0.90 1.38;1.05 .92;1 1" dur="1.44s" begin="-0.85s" repeatCount="indefinite"/></path>
<path d="M0 0 C-45.0 -68.3 -15.8 -141.2 0 -227.8 C15.8 -141.2 45.0 -68.3 0 0Z" fill="url(#flameDeep)" transform="translate(415.8 320)"><animateTransform attributeName="transform" type="scale" additive="sum" values="1 1;0.89 1.16;1.05 .92;1 1" dur="1.26s" begin="-1.02s" repeatCount="indefinite"/></path>
<path d="M0 0 C-69.2 -63.7 -24.2 -131.7 0 -212.4 C24.2 -131.7 69.2 -63.7 0 0Z" fill="url(#flameDeep)" transform="translate(451.1 320)"><animateTransform attributeName="transform" type="scale" additive="sum" values="1 1;0.90 1.40;1.05 .92;1 1" dur="2.15s" begin="-1.61s" repeatCount="indefinite"/></path>
<path d="M0 0 C-69.2 -52.2 -24.2 -107.8 0 -173.9 C24.2 -107.8 69.2 -52.2 0 0Z" fill="url(#flameDeep)" transform="translate(483.4 320)"><animateTransform attributeName="transform" type="scale" additive="sum" values="1 1;0.86 1.27;1.05 .92;1 1" dur="1.39s" begin="-0.27s" repeatCount="indefinite"/></path>
<path d="M0 0 C-68.5 -47.8 -24.0 -98.9 0 -159.4 C24.0 -98.9 68.5 -47.8 0 0Z" fill="url(#flameDeep)" transform="translate(548.7 320)"><animateTransform attributeName="transform" type="scale" additive="sum" values="1 1;0.90 1.19;1.05 .92;1 1" dur="1.30s" begin="-0.71s" repeatCount="indefinite"/></path>
<path d="M0 0 C-47.6 -53.4 -16.7 -110.3 0 -178.0 C16.7 -110.3 47.6 -53.4 0 0Z" fill="url(#flameDeep)" transform="translate(588.9 320)"><animateTransform attributeName="transform" type="scale" additive="sum" values="1 1;0.89 1.24;1.05 .92;1 1" dur="2.10s" begin="-1.87s" repeatCount="indefinite"/></path>
<path d="M0 0 C-66.9 -60.6 -23.4 -125.2 0 -201.9 C23.4 -125.2 66.9 -60.6 0 0Z" fill="url(#flameDeep)" transform="translate(633.4 320)"><animateTransform attributeName="transform" type="scale" additive="sum" values="1 1;0.92 1.36;1.05 .92;1 1" dur="1.61s" begin="-1.03s" repeatCount="indefinite"/></path>
<path d="M0 0 C-48.9 -53.1 -17.1 -109.7 0 -176.9 C17.1 -109.7 48.9 -53.1 0 0Z" fill="url(#flameDeep)" transform="translate(657.4 320)"><animateTransform attributeName="transform" type="scale" additive="sum" values="1 1;0.91 1.29;1.05 .92;1 1" dur="1.97s" begin="-1.63s" repeatCount="indefinite"/></path>
<path d="M0 0 C-58.9 -51.0 -20.6 -105.4 0 -169.9 C20.6 -105.4 58.9 -51.0 0 0Z" fill="url(#flameDeep)" transform="translate(697.2 320)"><animateTransform attributeName="transform" type="scale" additive="sum" values="1 1;0.93 1.21;1.05 .92;1 1" dur="1.76s" begin="-1.67s" repeatCount="indefinite"/></path>
<path d="M0 0 C-56.9 -56.6 -19.9 -117.0 0 -188.8 C19.9 -117.0 56.9 -56.6 0 0Z" fill="url(#flameDeep)" transform="translate(740.6 320)"><animateTransform attributeName="transform" type="scale" additive="sum" values="1 1;0.91 1.27;1.05 .92;1 1" dur="1.44s" begin="-0.65s" repeatCount="indefinite"/></path>
<path d="M0 0 C-40.1 -52.2 -14.0 -107.8 0 -173.9 C14.0 -107.8 40.1 -52.2 0 0Z" fill="url(#flameDeep)" transform="translate(807.8 320)"><animateTransform attributeName="transform" type="scale" additive="sum" values="1 1;0.86 1.37;1.05 .92;1 1" dur="1.99s" begin="-0.40s" repeatCount="indefinite"/></path>
<path d="M0 0 C-45.2 -54.1 -15.8 -111.9 0 -180.4 C15.8 -111.9 45.2 -54.1 0 0Z" fill="url(#flameDeep)" transform="translate(850.9 320)"><animateTransform attributeName="transform" type="scale" additive="sum" values="1 1;0.86 1.32;1.05 .92;1 1" dur="1.62s" begin="-0.78s" repeatCount="indefinite"/></path>
<path d="M0 0 C-56.2 -57.0 -19.7 -117.8 0 -190.0 C19.7 -117.8 56.2 -57.0 0 0Z" fill="url(#flameDeep)" transform="translate(895.6 320)"><animateTransform attributeName="transform" type="scale" additive="sum" values="1 1;0.88 1.37;1.05 .92;1 1" dur="1.73s" begin="-0.15s" repeatCount="indefinite"/></path>
<path d="M0 0 C-65.9 -55.4 -23.1 -114.6 0 -184.8 C23.1 -114.6 65.9 -55.4 0 0Z" fill="url(#flameDeep)" transform="translate(946.7 320)"><animateTransform attributeName="transform" type="scale" additive="sum" values="1 1;0.92 1.30;1.05 .92;1 1" dur="1.98s" begin="-0.58s" repeatCount="indefinite"/></path>
<path d="M0 0 C-50.5 -50.2 -17.7 -103.7 0 -167.2 C17.7 -103.7 50.5 -50.2 0 0Z" fill="url(#flameDeep)" transform="translate(971.4 320)"><animateTransform attributeName="transform" type="scale" additive="sum" values="1 1;0.88 1.25;1.05 .92;1 1" dur="2.16s" begin="-0.91s" repeatCount="indefinite"/></path>
<path d="M0 0 C-54.3 -57.0 -19.0 -117.7 0 -189.8 C19.0 -117.7 54.3 -57.0 0 0Z" fill="url(#flameDeep)" transform="translate(1033.5 320)"><animateTransform attributeName="transform" type="scale" additive="sum" values="1 1;0.88 1.17;1.05 .92;1 1" dur="1.46s" begin="-0.32s" repeatCount="indefinite"/></path>
<path d="M0 0 C-65.6 -55.6 -22.9 -114.8 0 -185.2 C22.9 -114.8 65.6 -55.6 0 0Z" fill="url(#flameDeep)" transform="translate(1058.3 320)"><animateTransform attributeName="transform" type="scale" additive="sum" values="1 1;0.90 1.18;1.05 .92;1 1" dur="1.31s" begin="-0.74s" repeatCount="indefinite"/></path>
<path d="M0 0 C-65.7 -49.0 -23.0 -101.3 0 -163.3 C23.0 -101.3 65.7 -49.0 0 0Z" fill="url(#flameDeep)" transform="translate(1109.1 320)"><animateTransform attributeName="transform" type="scale" additive="sum" values="1 1;0.87 1.40;1.05 .92;1 1" dur="2.05s" begin="-1.30s" repeatCount="indefinite"/></path>
<path d="M0 0 C-64.2 -49.4 -22.5 -102.2 0 -164.8 C22.5 -102.2 64.2 -49.4 0 0Z" fill="url(#flameDeep)" transform="translate(1139.3 320)"><animateTransform attributeName="transform" type="scale" additive="sum" values="1 1;0.86 1.36;1.05 .92;1 1" dur="1.56s" begin="-0.14s" repeatCount="indefinite"/></path>
<path d="M0 0 C-51.9 -60.3 -18.2 -124.7 0 -201.1 C18.2 -124.7 51.9 -60.3 0 0Z" fill="url(#flameDeep)" transform="translate(1208.5 320)"><animateTransform attributeName="transform" type="scale" additive="sum" values="1 1;0.86 1.38;1.05 .92;1 1" dur="1.49s" begin="-0.98s" repeatCount="indefinite"/></path></g>
<g filter="url(#fire)"><path d="M0 0 C-43.5 -42.9 -15.2 -88.6 0 -142.9 C15.2 -88.6 43.5 -42.9 0 0Z" fill="url(#flameHot)" transform="translate(-8.6 320)"><animateTransform attributeName="transform" type="scale" additive="sum" values="1 1;0.85 1.30;1.05 .92;1 1" dur="1.06s" begin="-0.15s" repeatCount="indefinite"/></path>
<path d="M0 0 C-33.4 -38.0 -11.7 -78.6 0 -126.7 C11.7 -78.6 33.4 -38.0 0 0Z" fill="url(#flameHot)" transform="translate(38.4 320)"><animateTransform attributeName="transform" type="scale" additive="sum" values="1 1;0.93 1.36;1.05 .92;1 1" dur="1.41s" begin="-0.85s" repeatCount="indefinite"/></path>
<path d="M0 0 C-30.5 -24.2 -10.7 -50.1 0 -80.7 C10.7 -50.1 30.5 -24.2 0 0Z" fill="url(#flameHot)" transform="translate(67.2 320)"><animateTransform attributeName="transform" type="scale" additive="sum" values="1 1;0.94 1.20;1.05 .92;1 1" dur="0.98s" begin="-0.42s" repeatCount="indefinite"/></path>
<path d="M0 0 C-36.4 -33.8 -12.7 -69.9 0 -112.7 C12.7 -69.9 36.4 -33.8 0 0Z" fill="url(#flameHot)" transform="translate(92.5 320)"><animateTransform attributeName="transform" type="scale" additive="sum" values="1 1;0.89 1.24;1.05 .92;1 1" dur="1.67s" begin="-1.09s" repeatCount="indefinite"/></path>
<path d="M0 0 C-42.5 -28.5 -14.9 -58.9 0 -94.9 C14.9 -58.9 42.5 -28.5 0 0Z" fill="url(#flameHot)" transform="translate(136.1 320)"><animateTransform attributeName="transform" type="scale" additive="sum" values="1 1;0.95 1.40;1.05 .92;1 1" dur="1.70s" begin="-0.22s" repeatCount="indefinite"/></path>
<path d="M0 0 C-39.5 -40.9 -13.8 -84.6 0 -136.5 C13.8 -84.6 39.5 -40.9 0 0Z" fill="url(#flameHot)" transform="translate(159.1 320)"><animateTransform attributeName="transform" type="scale" additive="sum" values="1 1;0.89 1.33;1.05 .92;1 1" dur="0.94s" begin="-0.71s" repeatCount="indefinite"/></path>
<path d="M0 0 C-28.2 -30.8 -9.9 -63.6 0 -102.5 C9.9 -63.6 28.2 -30.8 0 0Z" fill="url(#flameHot)" transform="translate(195.5 320)"><animateTransform attributeName="transform" type="scale" additive="sum" values="1 1;0.88 1.26;1.05 .92;1 1" dur="0.95s" begin="-0.78s" repeatCount="indefinite"/></path>
<path d="M0 0 C-32.3 -26.9 -11.3 -55.6 0 -89.7 C11.3 -55.6 32.3 -26.9 0 0Z" fill="url(#flameHot)" transform="translate(229.3 320)"><animateTransform attributeName="transform" type="scale" additive="sum" values="1 1;0.92 1.26;1.05 .92;1 1" dur="1.18s" begin="-0.20s" repeatCount="indefinite"/></path>
<path d="M0 0 C-35.5 -44.2 -12.4 -91.4 0 -147.4 C12.4 -91.4 35.5 -44.2 0 0Z" fill="url(#flameHot)" transform="translate(267.8 320)"><animateTransform attributeName="transform" type="scale" additive="sum" values="1 1;0.91 1.26;1.05 .92;1 1" dur="1.38s" begin="-0.84s" repeatCount="indefinite"/></path>
<path d="M0 0 C-43.6 -36.9 -15.3 -76.2 0 -122.9 C15.3 -76.2 43.6 -36.9 0 0Z" fill="url(#flameHot)" transform="translate(302.8 320)"><animateTransform attributeName="transform" type="scale" additive="sum" values="1 1;0.86 1.36;1.05 .92;1 1" dur="1.29s" begin="-0.50s" repeatCount="indefinite"/></path>
<path d="M0 0 C-25.1 -21.8 -8.8 -45.1 0 -72.7 C8.8 -45.1 25.1 -21.8 0 0Z" fill="url(#flameHot)" transform="translate(321.3 320)"><animateTransform attributeName="transform" type="scale" additive="sum" values="1 1;0.95 1.34;1.05 .92;1 1" dur="1.25s" begin="-0.89s" repeatCount="indefinite"/></path>
<path d="M0 0 C-29.5 -25.0 -10.3 -51.8 0 -83.5 C10.3 -51.8 29.5 -25.0 0 0Z" fill="url(#flameHot)" transform="translate(361.1 320)"><animateTransform attributeName="transform" type="scale" additive="sum" values="1 1;0.86 1.30;1.05 .92;1 1" dur="1.44s" begin="-0.74s" repeatCount="indefinite"/></path>
<path d="M0 0 C-26.4 -22.6 -9.2 -46.8 0 -75.4 C9.2 -46.8 26.4 -22.6 0 0Z" fill="url(#flameHot)" transform="translate(390.3 320)"><animateTransform attributeName="transform" type="scale" additive="sum" values="1 1;0.86 1.31;1.05 .92;1 1" dur="1.33s" begin="-0.41s" repeatCount="indefinite"/></path>
<path d="M0 0 C-39.0 -35.6 -13.7 -73.5 0 -118.5 C13.7 -73.5 39.0 -35.6 0 0Z" fill="url(#flameHot)" transform="translate(424.8 320)"><animateTransform attributeName="transform" type="scale" additive="sum" values="1 1;0.87 1.24;1.05 .92;1 1" dur="1.38s" begin="-1.35s" repeatCount="indefinite"/></path>
<path d="M0 0 C-29.7 -32.8 -10.4 -67.9 0 -109.5 C10.4 -67.9 29.7 -32.8 0 0Z" fill="url(#flameHot)" transform="translate(448.0 320)"><animateTransform attributeName="transform" type="scale" additive="sum" values="1 1;0.93 1.22;1.05 .92;1 1" dur="1.39s" begin="-1.34s" repeatCount="indefinite"/></path>
<path d="M0 0 C-39.8 -34.7 -13.9 -71.7 0 -115.6 C13.9 -71.7 39.8 -34.7 0 0Z" fill="url(#flameHot)" transform="translate(474.1 320)"><animateTransform attributeName="transform" type="scale" additive="sum" values="1 1;0.87 1.32;1.05 .92;1 1" dur="1.71s" begin="-1.62s" repeatCount="indefinite"/></path>
<path d="M0 0 C-26.2 -43.1 -9.2 -89.1 0 -143.7 C9.2 -89.1 26.2 -43.1 0 0Z" fill="url(#flameHot)" transform="translate(523.3 320)"><animateTransform attributeName="transform" type="scale" additive="sum" values="1 1;0.86 1.36;1.05 .92;1 1" dur="1.77s" begin="-0.14s" repeatCount="indefinite"/></path>
<path d="M0 0 C-39.9 -38.3 -14.0 -79.1 0 -127.6 C14.0 -79.1 39.9 -38.3 0 0Z" fill="url(#flameHot)" transform="translate(540.5 320)"><animateTransform attributeName="transform" type="scale" additive="sum" values="1 1;0.91 1.28;1.05 .92;1 1" dur="1.76s" begin="-0.48s" repeatCount="indefinite"/></path>
<path d="M0 0 C-43.8 -36.5 -15.3 -75.5 0 -121.7 C15.3 -75.5 43.8 -36.5 0 0Z" fill="url(#flameHot)" transform="translate(585.7 320)"><animateTransform attributeName="transform" type="scale" additive="sum" values="1 1;0.87 1.33;1.05 .92;1 1" dur="1.69s" begin="-1.24s" repeatCount="indefinite"/></path>
<path d="M0 0 C-40.4 -25.2 -14.1 -52.1 0 -84.1 C14.1 -52.1 40.4 -25.2 0 0Z" fill="url(#flameHot)" transform="translate(605.1 320)"><animateTransform attributeName="transform" type="scale" additive="sum" values="1 1;0.86 1.32;1.05 .92;1 1" dur="1.10s" begin="-0.16s" repeatCount="indefinite"/></path>
<path d="M0 0 C-24.0 -40.4 -8.4 -83.6 0 -134.8 C8.4 -83.6 24.0 -40.4 0 0Z" fill="url(#flameHot)" transform="translate(661.0 320)"><animateTransform attributeName="transform" type="scale" additive="sum" values="1 1;0.91 1.29;1.05 .92;1 1" dur="1.58s" begin="-1.26s" repeatCount="indefinite"/></path>
<path d="M0 0 C-26.8 -40.1 -9.4 -82.9 0 -133.7 C9.4 -82.9 26.8 -40.1 0 0Z" fill="url(#flameHot)" transform="translate(684.6 320)"><animateTransform attributeName="transform" type="scale" additive="sum" values="1 1;0.91 1.28;1.05 .92;1 1" dur="1.22s" begin="-1.10s" repeatCount="indefinite"/></path>
<path d="M0 0 C-41.1 -23.0 -14.4 -47.5 0 -76.5 C14.4 -47.5 41.1 -23.0 0 0Z" fill="url(#flameHot)" transform="translate(711.3 320)"><animateTransform attributeName="transform" type="scale" additive="sum" values="1 1;0.92 1.30;1.05 .92;1 1" dur="1.19s" begin="-0.99s" repeatCount="indefinite"/></path>
<path d="M0 0 C-40.1 -40.1 -14.0 -82.9 0 -133.6 C14.0 -82.9 40.1 -40.1 0 0Z" fill="url(#flameHot)" transform="translate(738.4 320)"><animateTransform attributeName="transform" type="scale" additive="sum" values="1 1;0.86 1.30;1.05 .92;1 1" dur="1.03s" begin="-1.00s" repeatCount="indefinite"/></path>
<path d="M0 0 C-32.6 -33.2 -11.4 -68.5 0 -110.5 C11.4 -68.5 32.6 -33.2 0 0Z" fill="url(#flameHot)" transform="translate(781.3 320)"><animateTransform attributeName="transform" type="scale" additive="sum" values="1 1;0.90 1.28;1.05 .92;1 1" dur="1.63s" begin="-0.97s" repeatCount="indefinite"/></path>
<path d="M0 0 C-40.0 -41.1 -14.0 -85.0 0 -137.1 C14.0 -85.0 40.0 -41.1 0 0Z" fill="url(#flameHot)" transform="translate(822.0 320)"><animateTransform attributeName="transform" type="scale" additive="sum" values="1 1;0.91 1.36;1.05 .92;1 1" dur="1.14s" begin="-0.82s" repeatCount="indefinite"/></path>
<path d="M0 0 C-42.3 -24.1 -14.8 -49.7 0 -80.2 C14.8 -49.7 42.3 -24.1 0 0Z" fill="url(#flameHot)" transform="translate(855.0 320)"><animateTransform attributeName="transform" type="scale" additive="sum" values="1 1;0.89 1.20;1.05 .92;1 1" dur="1.36s" begin="-0.68s" repeatCount="indefinite"/></path>
<path d="M0 0 C-39.4 -23.4 -13.8 -48.3 0 -77.9 C13.8 -48.3 39.4 -23.4 0 0Z" fill="url(#flameHot)" transform="translate(888.2 320)"><animateTransform attributeName="transform" type="scale" additive="sum" values="1 1;0.89 1.37;1.05 .92;1 1" dur="1.12s" begin="-0.52s" repeatCount="indefinite"/></path>
<path d="M0 0 C-35.0 -26.9 -12.3 -55.7 0 -89.8 C12.3 -55.7 35.0 -26.9 0 0Z" fill="url(#flameHot)" transform="translate(899.3 320)"><animateTransform attributeName="transform" type="scale" additive="sum" values="1 1;0.91 1.40;1.05 .92;1 1" dur="0.93s" begin="-0.73s" repeatCount="indefinite"/></path>
<path d="M0 0 C-27.1 -34.5 -9.5 -71.3 0 -114.9 C9.5 -71.3 27.1 -34.5 0 0Z" fill="url(#flameHot)" transform="translate(946.7 320)"><animateTransform attributeName="transform" type="scale" additive="sum" values="1 1;0.93 1.26;1.05 .92;1 1" dur="1.47s" begin="-0.08s" repeatCount="indefinite"/></path>
<path d="M0 0 C-29.3 -38.7 -10.3 -80.0 0 -129.1 C10.3 -80.0 29.3 -38.7 0 0Z" fill="url(#flameHot)" transform="translate(984.1 320)"><animateTransform attributeName="transform" type="scale" additive="sum" values="1 1;0.93 1.23;1.05 .92;1 1" dur="1.32s" begin="-0.12s" repeatCount="indefinite"/></path>
<path d="M0 0 C-33.6 -40.0 -11.8 -82.7 0 -133.4 C11.8 -82.7 33.6 -40.0 0 0Z" fill="url(#flameHot)" transform="translate(1003.5 320)"><animateTransform attributeName="transform" type="scale" additive="sum" values="1 1;0.92 1.24;1.05 .92;1 1" dur="1.26s" begin="-0.93s" repeatCount="indefinite"/></path>
<path d="M0 0 C-41.6 -43.7 -14.6 -90.2 0 -145.6 C14.6 -90.2 41.6 -43.7 0 0Z" fill="url(#flameHot)" transform="translate(1029.4 320)"><animateTransform attributeName="transform" type="scale" additive="sum" values="1 1;0.94 1.34;1.05 .92;1 1" dur="0.92s" begin="-0.64s" repeatCount="indefinite"/></path>
<path d="M0 0 C-38.7 -39.5 -13.5 -81.7 0 -131.7 C13.5 -81.7 38.7 -39.5 0 0Z" fill="url(#flameHot)" transform="translate(1060.0 320)"><animateTransform attributeName="transform" type="scale" additive="sum" values="1 1;0.95 1.39;1.05 .92;1 1" dur="1.46s" begin="-0.93s" repeatCount="indefinite"/></path>
<path d="M0 0 C-26.9 -28.2 -9.4 -58.2 0 -93.9 C9.4 -58.2 26.9 -28.2 0 0Z" fill="url(#flameHot)" transform="translate(1113.7 320)"><animateTransform attributeName="transform" type="scale" additive="sum" values="1 1;0.90 1.39;1.05 .92;1 1" dur="1.38s" begin="-0.88s" repeatCount="indefinite"/></path>
<path d="M0 0 C-36.4 -43.7 -12.7 -90.3 0 -145.6 C12.7 -90.3 36.4 -43.7 0 0Z" fill="url(#flameHot)" transform="translate(1138.3 320)"><animateTransform attributeName="transform" type="scale" additive="sum" values="1 1;0.92 1.30;1.05 .92;1 1" dur="1.26s" begin="-0.51s" repeatCount="indefinite"/></path>
<path d="M0 0 C-27.1 -21.3 -9.5 -43.9 0 -70.9 C9.5 -43.9 27.1 -21.3 0 0Z" fill="url(#flameHot)" transform="translate(1163.4 320)"><animateTransform attributeName="transform" type="scale" additive="sum" values="1 1;0.88 1.17;1.05 .92;1 1" dur="1.20s" begin="-0.58s" repeatCount="indefinite"/></path>
<path d="M0 0 C-42.5 -39.7 -14.9 -82.1 0 -132.4 C14.9 -82.1 42.5 -39.7 0 0Z" fill="url(#flameHot)" transform="translate(1196.1 320)"><animateTransform attributeName="transform" type="scale" additive="sum" values="1 1;0.93 1.22;1.05 .92;1 1" dur="1.50s" begin="-0.17s" repeatCount="indefinite"/></path></g>
<path d="M270.5684123535156 77.436Q271.1097722167969 77.436 271.9772984619141 77.488Q272.84482470703125 77.53999999999999 273.76992419433594 77.631Q274.69502368164063 77.72200000000001 275.3958699951172 77.813Q276.0967163085937 77.904 276.3256096191406 78.008L275.90774340820315 81.729732421875H275.65285009765626Q275.65285009765626 80.33547924804688 274.596363647461 79.48467272949219Q273.53987719726564 78.6338662109375 271.7537578125 78.6338662109375Q270.19839794921876 78.6338662109375 269.272611328125 79.30103979492188Q268.34682470703126 79.96821337890626 268.28414477539064 80.97617358398438Q268.22146484375 81.82535986328125 268.83943774414064 82.37344665527344Q269.45741064453125 82.92153344726563 270.3479169921875 83.38906689453125L275.26098388671875 86.13620239257813Q276.5842099609375 86.8015224609375 277.30386279296874 87.9678154296875Q278.023515625 89.1341083984375 277.91904907226564 90.81252075195313Q277.7727958984375 93.47196020507812 275.7912099609375 94.91798010253906Q273.8096240234375 96.364 270.40359863281253 96.364Q269.06922607421876 96.364 267.9212730712891 96.15042675781251Q266.7733200683594 95.936853515625 265.9176401367188 95.57006689453125Q265.06196020507815 95.2032802734375 264.5837468261719 94.72506689453125Q264.3386003417969 94.12102709960938 264.3803869628906 93.24630737304688Q264.4221735839844 92.37158764648437 264.68287341308593 91.4945478515625Q264.9435732421875 90.61750805664063 265.3136130371094 90.0664013671875H265.5476130371094Q265.45939965820315 91.41329467773437 266.07365283203126 92.58933447265625Q266.68790600585936 93.76537426757812 267.9087523193359 94.47086071777343Q269.12959863281253 95.17634716796876 270.81682470703123 95.1661337890625Q272.60201098632814 95.15081372070313 273.52454443359375 94.34272692871093Q274.44707788085935 93.53464013671875 274.44707788085935 92.43429296875Q274.44707788085935 91.61761303710938 273.8841248779297 90.9543797607422Q273.321171875 90.291146484375 272.03322607421876 89.66110668945312L267.6471320800781 87.16422436523438Q266.05229296875 86.35265112304688 265.33287341308596 85.0115516357422Q264.61345385742186 83.6704521484375 264.80149365234377 82.03893310546874Q264.9477468261719 80.61264013671875 265.67667993164065 79.57774682617188Q266.4056130371094 78.542853515625 267.64154614257814 77.98942675781251Q268.8774792480469 77.436 270.5684123535156 77.436ZM276.36739624023437 77.696 276.30471630859375 78.242H272.88707788085935V77.696ZM302.5702641601563 77.8V96.0H297.9552006835938V77.8ZM290.2462641601563 77.8V96.0H285.63120068359376V77.8ZM298.18920068359375 86.32149365234375V87.51935986328125H289.9862641601563V86.32149365234375ZM285.7092006835938 94.102V96.0H283.62920068359375V95.74Q283.62920068359375 95.74 283.7982006835938 95.74Q283.9672006835938 95.74 283.9672006835938 95.74Q284.64320068359376 95.74 285.12420068359376 95.259Q285.60520068359375 94.778 285.63120068359376 94.102ZM285.7092006835938 79.69800000000001H285.63120068359376Q285.60520068359375 79.022 285.12420068359376 78.541Q284.64320068359376 78.06 283.9672006835938 78.06Q283.9672006835938 78.06 283.7982006835938 78.06Q283.62920068359375 78.06 283.62920068359375 78.06V77.8H285.7092006835938ZM290.1682641601563 94.102H290.2462641601563Q290.2722641601563 94.778 290.7532641601563 95.259Q291.2342641601563 95.74 291.91026416015626 95.74Q291.91026416015626 95.74 292.06626416015627 95.74Q292.22226416015627 95.74 292.2482641601563 95.74V96.0H290.1682641601563ZM290.1682641601563 79.69800000000001V77.8H292.2482641601563V78.06Q292.22226416015627 78.06 292.06626416015627 78.06Q291.91026416015626 78.06 291.91026416015626 78.06Q291.2342641601563 78.06 290.7532641601563 78.541Q290.2722641601563 79.022 290.2462641601563 79.69800000000001ZM298.0332006835938 94.102V96.0H295.95320068359376V95.74Q295.9792006835938 95.74 296.1352006835938 95.74Q296.2912006835938 95.74 296.2912006835938 95.74Q296.9672006835938 95.74 297.4612006835938 95.259Q297.9552006835938 94.778 297.9552006835938 94.102ZM298.0332006835938 79.69800000000001H297.9552006835938Q297.9552006835938 79.022 297.4612006835938 78.541Q296.9672006835938 78.06 296.2912006835938 78.06Q296.2912006835938 78.06 296.1352006835938 78.06Q295.9792006835938 78.06 295.95320068359376 78.06V77.8H298.0332006835938ZM302.49226416015625 94.102H302.5702641601563Q302.5962641601563 94.778 303.0772641601563 95.259Q303.5582641601563 95.74 304.2342641601563 95.74Q304.2342641601563 95.74 304.40326416015625 95.74Q304.5722641601563 95.74 304.5722641601563 95.74V96.0H302.49226416015625ZM302.49226416015625 79.69800000000001V77.8H304.5722641601563V78.06Q304.5722641601563 78.06 304.40326416015625 78.06Q304.2342641601563 78.06 304.2342641601563 78.06Q303.5582641601563 78.06 303.0772641601563 78.541Q302.5962641601563 79.022 302.5702641601563 79.69800000000001ZM316.6882641601563 77.8V96.0H312.07320068359377V77.8ZM312.1512006835938 94.102V96.0H310.07120068359376V95.74Q310.07120068359376 95.74 310.2402006835938 95.74Q310.4092006835938 95.74 310.4092006835938 95.74Q311.08520068359377 95.74 311.56620068359376 95.259Q312.04720068359376 94.778 312.07320068359377 94.102ZM312.1512006835938 79.69800000000001H312.07320068359377Q312.04720068359376 79.022 311.56620068359376 78.541Q311.08520068359377 78.06 310.4092006835938 78.06Q310.4092006835938 78.06 310.2402006835938 78.06Q310.07120068359376 78.06 310.07120068359376 78.06V77.8H312.1512006835938ZM316.6102641601563 94.102H316.6882641601563Q316.7142641601563 94.778 317.1952641601563 95.259Q317.6762641601563 95.74 318.35226416015627 95.74Q318.35226416015627 95.74 318.5082641601563 95.74Q318.6642641601563 95.74 318.6902641601563 95.74V96.0H316.6102641601563ZM316.6102641601563 79.69800000000001V77.8H318.6902641601563V78.06Q318.6642641601563 78.06 318.5082641601563 78.06Q318.35226416015627 78.06 318.35226416015627 78.06Q317.6762641601563 78.06 317.1952641601563 78.541Q316.7142641601563 79.022 316.6882641601563 79.69800000000001ZM330.5467307128906 77.8H333.5608645019531Q335.9770236816406 77.8 337.44463671875 78.47112658691407Q338.9122497558594 79.14225317382812 339.6144830322266 80.2628065185547Q340.31671630859375 81.38335986328126 340.37939624023437 82.77621337890625Q340.442076171875 84.16025317382812 339.9427362060547 85.28684631347656Q339.4433962402344 86.413439453125 338.5484830322266 87.16790600585938Q337.6535698242188 87.92237255859375 336.51931665039064 88.24737255859375Q335.3850634765625 88.57237255859376 334.1544703369141 88.37945935058593Q332.92387719726565 88.18654614257812 331.76873071289066 87.39493310546875V87.13493310546875Q331.76873071289066 87.13493310546875 332.0540308837891 87.11635986328125Q332.33933105468753 87.09778662109375 332.78805798339846 86.9647667236328Q333.2367849121094 86.83174682617188 333.732171875 86.53251354980469Q334.2275588378906 86.2332802734375 334.67117907714845 85.64062023925781Q335.1147993164063 85.04796020507813 335.3483327636719 84.118Q335.44722607421875 83.7484267578125 335.48877941894534 83.32987341308593Q335.5303327636719 82.91132006835937 335.50433276367187 82.55799999999999Q335.457439453125 80.931146484375 334.5996727294922 79.96450634765625Q333.7419060058594 78.9978662109375 332.20326586914064 78.9978662109375H330.80673071289067Q330.80673071289067 78.9978662109375 330.74173071289067 78.69839965820313Q330.6767307128906 78.39893310546876 330.6117307128906 78.09946655273438Q330.5467307128906 77.8 330.5467307128906 77.8ZM330.88473071289064 77.8V96.0H326.26966723632813V77.8ZM326.34766723632816 94.102V96.0H324.2676672363281V95.74Q324.3094538574219 95.74 324.4471138916016 95.74Q324.5847739257813 95.74 324.60566723632815 95.74Q325.28166723632813 95.74 325.7626672363281 95.259Q326.2436672363281 94.778 326.26966723632813 94.102ZM326.34766723632816 79.69800000000001H326.26966723632813Q326.26966723632813 79.022 325.7756672363281 78.541Q325.28166723632813 78.06 324.60566723632815 78.06Q324.5847739257813 78.06 324.4601138916016 78.06Q324.3354538574219 78.06 324.29366723632813 78.06L324.2676672363281 77.8H326.34766723632816ZM330.80673071289067 94.102H330.88473071289064Q330.91073071289065 94.778 331.39173071289065 95.259Q331.87273071289064 95.74 332.54873071289063 95.74Q332.5905173339844 95.74 332.7281773681641 95.74Q332.86583740234374 95.74 332.88673071289065 95.74V96.0H330.80673071289067ZM362.26626416015625 77.8V96.0H357.65120068359374V77.8ZM357.7292006835938 94.102V96.0H355.64920068359373V95.74Q355.64920068359373 95.74 355.8182006835938 95.74Q355.98720068359376 95.74 355.98720068359376 95.74Q356.66320068359374 95.74 357.14420068359374 95.259Q357.62520068359373 94.778 357.65120068359374 94.102ZM357.7292006835938 79.69800000000001H357.65120068359374Q357.62520068359373 79.022 357.14420068359374 78.541Q356.66320068359374 78.06 355.98720068359376 78.06Q355.98720068359376 78.06 355.8182006835938 78.06Q355.64920068359373 78.06 355.64920068359373 78.06V77.8H357.7292006835938ZM362.1882641601563 94.102H362.26626416015625Q362.29226416015626 94.778 362.77326416015626 95.259Q363.25426416015625 95.74 363.93026416015624 95.74Q363.93026416015624 95.74 364.08626416015625 95.74Q364.24226416015625 95.74 364.26826416015626 95.74V96.0H362.1882641601563ZM362.1882641601563 79.69800000000001V77.8H364.26826416015626V78.06Q364.24226416015625 78.06 364.08626416015625 78.06Q363.93026416015624 78.06 363.93026416015624 78.06Q363.25426416015625 78.06 362.77326416015626 78.541Q362.29226416015626 79.022 362.26626416015625 79.69800000000001ZM379.9982641601562 77.878V96.0H375.3832006835937V77.878ZM386.2623979492187 77.774V78.9718662109375H369.1190668945312V77.774ZM386.2623979492187 78.8938662109375V82.25346484375L386.00239794921873 82.22746484375V81.99439794921875Q386.00239794921873 80.61313208007813 385.20265832519533 79.80549914550781Q384.40291870117187 78.9978662109375 383.0058662109375 78.9718662109375V78.8938662109375ZM386.2623979492187 77.306V78.06L383.09039794921875 77.774Q383.66239794921876 77.774 384.29939794921876 77.696Q384.93639794921876 77.618 385.48239794921875 77.514Q386.02839794921874 77.41 386.2623979492187 77.306ZM375.46120068359374 94.102V96.0H373.38120068359376V95.74Q373.38120068359376 95.74 373.55020068359374 95.74Q373.7192006835937 95.74 373.7192006835937 95.74Q374.39520068359377 95.74 374.87620068359377 95.259Q375.35720068359376 94.778 375.3832006835937 94.102ZM379.92026416015625 94.102H379.9982641601562Q380.02426416015624 94.778 380.50526416015623 95.259Q380.9862641601562 95.74 381.66226416015627 95.74Q381.66226416015627 95.74 381.83126416015625 95.74Q382.00026416015623 95.74 382.00026416015623 95.74V96.0H379.92026416015625ZM372.3755986328125 78.8938662109375V78.9718662109375Q370.97343945312497 78.9978662109375 370.1762531738281 79.80549914550781Q369.37906689453126 80.61313208007813 369.37906689453126 81.99439794921875V82.22746484375L369.1190668945312 82.25346484375V78.8938662109375ZM369.1190668945312 77.306Q369.37906689453126 77.41 369.9120668945312 77.514Q370.44506689453124 77.618 371.0950668945312 77.696Q371.74506689453125 77.774 372.29106689453124 77.774L369.1190668945312 78.06ZM403.365732421875 88.905732421875Q402.4956528320312 88.905732421875 401.87559313964846 88.28567272949219Q401.25553344726563 87.66561303710938 401.25553344726563 86.79553344726563Q401.25553344726563 85.904560546875 401.87559313964846 85.29494750976562Q402.4956528320312 84.68533447265625 403.365732421875 84.68533447265625Q404.25670532226565 84.68533447265625 404.866318359375 85.29494750976562Q405.4759313964844 85.904560546875 405.4759313964844 86.79553344726563Q405.4759313964844 87.66561303710938 404.866318359375 88.28567272949219Q404.25670532226565 88.905732421875 403.365732421875 88.905732421875ZM427.6084123535156 77.436Q428.14977221679686 77.436 429.01729846191404 77.488Q429.8848247070312 77.53999999999999 430.8099241943359 77.631Q431.7350236816406 77.72200000000001 432.4358699951172 77.813Q433.1367163085937 77.904 433.36560961914057 78.008L432.9477434082031 81.729732421875H432.6928500976562Q432.6928500976562 80.33547924804688 431.63636364746094 79.48467272949219Q430.5798771972656 78.6338662109375 428.79375781249996 78.6338662109375Q427.2383979492187 78.6338662109375 426.31261132812494 79.30103979492188Q425.3868247070312 79.96821337890626 425.3241447753906 80.97617358398438Q425.26146484375 81.82535986328125 425.8794377441406 82.37344665527344Q426.4974106445312 82.92153344726563 427.38791699218746 83.38906689453125L432.3009838867187 86.13620239257813Q433.6242099609375 86.8015224609375 434.3438627929687 87.9678154296875Q435.063515625 89.1341083984375 434.9590490722656 90.81252075195313Q434.81279589843746 93.47196020507812 432.8312099609375 94.91798010253906Q430.84962402343746 96.364 427.4435986328125 96.364Q426.1092260742187 96.364 424.96127307128904 96.15042675781251Q423.81332006835936 95.936853515625 422.95764013671874 95.57006689453125Q422.1019602050781 95.2032802734375 421.62374682617184 94.72506689453125Q421.37860034179687 94.12102709960938 421.4203869628906 93.24630737304688Q421.46217358398434 92.37158764648437 421.7228734130859 91.4945478515625Q421.98357324218745 90.61750805664063 422.35361303710937 90.0664013671875H422.58761303710935Q422.4993996582031 91.41329467773437 423.1136528320312 92.58933447265625Q423.7279060058593 93.76537426757812 424.9487523193359 94.47086071777343Q426.1695986328125 95.17634716796876 427.8568247070312 95.1661337890625Q429.6420109863281 95.15081372070313 430.5645444335937 94.34272692871093Q431.4870778808593 93.53464013671875 431.4870778808593 92.43429296875Q431.4870778808593 91.61761303710938 430.92412487792967 90.9543797607422Q430.36117187499997 90.291146484375 429.0732260742187 89.66110668945312L424.6871320800781 87.16422436523438Q423.09229296875 86.35265112304688 422.3728734130859 85.0115516357422Q421.6534538574218 83.6704521484375 421.84149365234373 82.03893310546874Q421.9877468261719 80.61264013671875 422.7166799316406 79.57774682617188Q423.44561303710935 78.542853515625 424.6815461425781 77.98942675781251Q425.91747924804685 77.436 427.6084123535156 77.436ZM433.40739624023433 77.696 433.3447163085937 78.242H429.9270778808593V77.696ZM447.28626416015624 77.8V96.0H442.6712006835937V77.8ZM454.0973310546875 94.7761337890625 454.9330634765625 96.0H447.20826416015626V94.7761337890625ZM453.1882641601562 86.43106689453126V87.62893310546875H447.20826416015626V86.43106689453126ZM454.515197265625 77.8V79.0238662109375H447.20826416015626V77.8ZM456.101197265625 90.32546826171875 455.01106347656247 96.0H449.65039794921876L450.58639794921874 94.7761337890625Q451.85993139648434 94.7761337890625 452.8980778808593 94.24266723632812Q453.93622436523435 93.70920068359375 454.6911574707031 92.70982092285156Q455.44609057617185 91.71044116210938 455.8492331542969 90.32546826171875ZM453.1882641601562 87.57693310546875V90.3375986328125H452.92826416015623V90.15653173828125Q452.92826416015623 89.07241235351563 452.2195245361328 88.36111938476563Q451.5107849121094 87.64982641601563 450.42666552734374 87.62893310546875V87.57693310546875ZM453.1882641601562 83.7224013671875V86.48306689453125H450.42666552734374V86.43106689453126Q451.5107849121094 86.40506689453125 452.22997119140626 85.68332727050782Q452.94915747070314 84.96158764648438 452.92826416015623 83.87746826171875V83.7224013671875ZM454.515197265625 78.9458662109375V82.27946484375H454.255197265625V82.02039794921875Q454.255197265625 80.64423876953126 453.4580109863281 79.83405249023437Q452.6608247070312 79.0238662109375 451.25866552734374 78.9978662109375V78.9458662109375ZM454.515197265625 77.332V78.086L451.343197265625 77.8Q451.915197265625 77.8 452.552197265625 77.72200000000001Q453.189197265625 77.644 453.735197265625 77.54Q454.281197265625 77.436 454.515197265625 77.332ZM442.74920068359376 94.102V96.0H440.6692006835937V95.74Q440.6692006835937 95.74 440.83820068359375 95.74Q441.00720068359374 95.74 441.00720068359374 95.74Q441.6832006835937 95.74 442.1642006835937 95.259Q442.6452006835937 94.778 442.6712006835937 94.102ZM442.74920068359376 79.69800000000001H442.6712006835937Q442.65030737304687 79.022 442.1625100746155 78.541Q441.6747127761841 78.06 441.00720068359374 78.06Q441.00720068359374 78.06 440.8407540283203 78.06Q440.6743073730469 78.06 440.6743073730469 78.06L440.6692006835937 77.8H442.74920068359376ZM479.10697290039064 88.408 479.54713208007814 93.01233276367188Q478.9964919433594 93.92139965820313 478.05306518554687 94.67748645019532Q477.10963842773435 95.4335732421875 475.6768518066406 95.89878662109376Q474.2440651855469 96.364 472.2411320800781 96.364Q468.9103327636719 96.338 466.43869982910155 95.22023327636718Q463.96706689453123 94.10246655273437 462.62736706542967 91.99391320800781Q461.2876672363281 89.88535986328125 461.2876672363281 86.874Q461.2876672363281 83.93553344726563 462.6039204101562 81.81653344726563Q463.92017358398436 79.69753344726563 466.3839132080078 78.56676672363281Q468.84765283203126 77.436 472.29266552734373 77.436Q474.4255986328125 77.436 476.0979584960937 77.82808679199219Q477.770318359375 78.22017358398438 478.8725317382812 78.74434716796875L478.765732421875 83.4550126953125H478.531732421875Q477.7925859375 80.79093310546875 476.2544123535156 79.71239965820313Q474.71623876953123 78.6338662109375 472.64785180664063 78.6338662109375Q470.65235815429685 78.6338662109375 469.22607788085935 79.61884631347655Q467.79979760742185 80.60382641601562 467.0334974365234 82.42591320800781Q466.267197265625 84.248 466.267197265625 86.80621337890625Q466.267197265625 89.3644267578125 466.99171081542966 91.22040686035156Q467.7162243652344 93.07638696289062 469.05382470703125 94.09526037597657Q470.3914250488281 95.1141337890625 472.2411320800781 95.1661337890625Q474.29606518554687 95.1661337890625 475.6078988037109 94.52936706542968Q476.919732421875 93.89260034179688 477.6932260742187 92.40317358398437Q478.4667197265625 90.91374682617187 478.8989729003906 88.408ZM491.64319726562496 77.8V89.24Q491.64319726562496 91.07021337890625 492.23817736816403 92.39574682617187Q492.8331574707031 93.7212802734375 493.9244576416015 94.43070703125Q495.0157578125 95.1401337890625 496.52839794921874 95.1401337890625Q498.08235815429686 95.1401337890625 499.18387170410153 94.46970703125001Q500.2853852539062 93.7992802734375 500.888025390625 92.55430017089844Q501.4906655273437 91.30932006835937 501.4906655273437 89.578V77.8H503.5483979492187V89.36906689453124Q503.5483979492187 91.5224267578125 502.6460579833984 93.09566003417969Q501.7437180175781 94.66889331054688 500.03235815429684 95.51644665527344Q498.3209982910156 96.364 495.90159863281247 96.364Q492.9287595214843 96.364 490.9485732421874 95.519Q488.9683869628906 94.674 487.99826037597654 93.11121337890626Q487.02813378906245 91.5484267578125 487.02813378906245 89.39506689453125V77.8ZM487.1061337890625 77.8V79.36H487.02813378906245Q487.02813378906245 78.788 486.6251337890625 78.424Q486.22213378906247 78.06 485.65013378906247 78.06Q485.65013378906247 78.06 485.4421337890625 78.06Q485.23413378906247 78.06 485.23413378906247 78.06V77.8ZM493.437197265625 77.8V78.06Q493.437197265625 78.06 493.229197265625 78.06Q493.02119726562495 78.06 493.02119726562495 78.06Q492.449197265625 78.06 492.046197265625 78.424Q491.64319726562496 78.788 491.64319726562496 79.36H491.591197265625V77.8ZM501.56866552734374 77.8V79.36H501.4906655273437Q501.4906655273437 78.788 501.0876655273437 78.424Q500.6846655273437 78.06 500.1126655273437 78.06Q500.1126655273437 78.06 499.9046655273437 78.06Q499.6966655273437 78.06 499.6966655273437 78.06V77.8ZM505.3423979492187 77.8V78.06Q505.3423979492187 78.06 505.13439794921874 78.06Q504.9263979492187 78.06 504.9263979492187 78.06Q504.3543979492187 78.06 503.95139794921874 78.424Q503.5483979492187 78.788 503.5483979492187 79.36H503.4963979492187V77.8ZM516.9876240234374 77.8H520.2357578125Q521.4057578124999 77.8 522.5741375732421 78.03353344726563Q523.7425173339843 78.26706689453125 524.6850236816406 78.82049365234374Q525.6275300292968 79.37392041015624 526.197909790039 80.32315368652343Q526.7682895507812 81.27238696289062 526.7682895507812 82.70889331054687Q526.7682895507812 83.74796020507813 526.3608826904297 84.81883361816406Q525.9534758300781 85.88970703125 525.0360490722655 86.66738696289062Q524.1186223144531 87.44506689453125 522.55722265625 87.654Q523.5215554199218 87.94046655273438 524.2713818359375 88.65616638183593Q525.0212082519531 89.3718662109375 525.4738881835938 90.10079931640625Q525.5156748046875 90.16347924804687 525.7517615966797 90.55556604003905Q525.9878483886719 90.94765283203125 526.3537019042969 91.51895300292969Q526.7195554199219 92.09025317382813 527.1193022460938 92.68778662109375Q527.5190490722656 93.28532006835937 527.8881557617187 93.764Q528.4708356933594 94.52403979492188 528.9281557617187 94.945146484375Q529.3854758300781 95.36625317382813 529.8711159667969 95.54267993164063Q530.3567561035156 95.71910668945313 531.0062895507813 95.74V96.0H528.1137578125Q526.6252514648437 96.0 525.3886185302733 95.78225317382812Q524.1519855957031 95.56450634765625 523.1883526611327 94.95837976074219Q522.2247197265625 94.35225317382813 521.4953200683593 93.16877392578125Q521.2501735839844 92.772267578125 521.0349801025391 92.29916088867188Q520.8197866210937 91.82605419921875 520.6208463134765 91.33554064941407Q520.4219060058593 90.84502709960938 520.256859008789 90.38840686035157Q520.0918120117187 89.93178662109375 519.9627451171875 89.53435986328125Q519.8336782226562 89.13693310546876 519.7398916015625 88.85Q519.4339313964844 87.97017358398438 519.0239711914062 87.59132006835938Q518.6140109863281 87.21246655273437 518.1836240234375 87.108V86.848Q518.267197265625 86.848 518.4508175048828 86.85055334472656Q518.6344377441407 86.85310668945313 518.7885715332031 86.848Q519.5063581542969 86.84289331054687 520.1243183593749 86.53553344726562Q520.742278564453 86.22817358398437 521.1935588378906 85.55170703125Q521.6448391113281 84.87524047851562 521.8207993164062 83.74702709960937Q521.8570126953125 83.52370703125 521.8881193847656 83.24096020507812Q521.9192260742187 82.95821337890625 521.8932260742188 82.584Q521.8045461425781 80.69064013671876 520.954439453125 79.87791320800781Q520.1043327636719 79.06518627929688 518.8781591796875 79.0498662109375Q518.6307053222656 79.03965283203125 518.3129114990234 79.04220617675782Q517.9951176757812 79.04475952148438 517.7049440917968 79.04475952148438Q517.4147705078125 79.04475952148438 517.2476240234374 79.04475952148438Q517.2476240234374 79.03965283203125 517.1826240234375 78.72973962402344Q517.1176240234374 78.41982641601562 517.0526240234374 78.10991320800781Q516.9876240234374 77.8 516.9876240234374 77.8ZM517.3256240234375 77.8V96.0H512.6896672363281V77.8ZM512.7676672363281 94.102V96.0H510.6876672363281V95.74Q510.72945385742184 95.74 510.86711389160155 95.74Q511.00477392578125 95.74 511.0256672363281 95.74Q511.7016672363281 95.74 512.1826672363281 95.259Q512.6636672363281 94.778 512.6896672363281 94.102ZM512.7676672363281 79.69800000000001H512.6896672363281Q512.6636672363281 79.022 512.1826672363281 78.541Q511.7016672363281 78.06 511.0256672363281 78.06Q511.00477392578125 78.06 510.86711389160155 78.06Q510.72945385742184 78.06 510.6876672363281 78.06V77.8H512.7676672363281ZM517.2476240234374 94.102H517.3256240234375Q517.3256240234375 94.778 517.8196240234374 95.259Q518.3136240234375 95.74 518.9896240234375 95.74Q519.0314106445312 95.74 519.1560706787109 95.74Q519.2807307128905 95.74 519.3016240234375 95.74V96.0H517.2476240234374ZM540.8602641601562 77.8V96.0H536.2452006835937V77.8ZM547.6713310546875 94.7761337890625 548.5070634765624 96.0H540.7822641601562V94.7761337890625ZM546.7622641601562 86.43106689453126V87.62893310546875H540.7822641601562V86.43106689453126ZM548.089197265625 77.8V79.0238662109375H540.7822641601562V77.8ZM549.675197265625 90.32546826171875 548.5850634765625 96.0H543.2243979492187L544.1603979492187 94.7761337890625Q545.4339313964844 94.7761337890625 546.4720778808594 94.24266723632812Q547.5102243652343 93.70920068359375 548.2651574707031 92.70982092285156Q549.0200905761718 91.71044116210938 549.4232331542968 90.32546826171875ZM546.7622641601562 87.57693310546875V90.3375986328125H546.5022641601562V90.15653173828125Q546.5022641601562 89.07241235351563 545.7935245361327 88.36111938476563Q545.0847849121093 87.64982641601563 544.0006655273437 87.62893310546875V87.57693310546875ZM546.7622641601562 83.7224013671875V86.48306689453125H544.0006655273437V86.43106689453126Q545.0847849121093 86.40506689453125 545.8039711914062 85.68332727050782Q546.523157470703 84.96158764648438 546.5022641601562 83.87746826171875V83.7224013671875ZM548.089197265625 78.9458662109375V82.27946484375H547.829197265625V82.02039794921875Q547.829197265625 80.64423876953126 547.032010986328 79.83405249023437Q546.2348247070312 79.0238662109375 544.8326655273437 78.9978662109375V78.9458662109375ZM548.089197265625 77.332V78.086L544.917197265625 77.8Q545.489197265625 77.8 546.126197265625 77.72200000000001Q546.763197265625 77.644 547.309197265625 77.54Q547.855197265625 77.436 548.089197265625 77.332ZM536.3232006835937 94.102V96.0H534.2432006835937V95.74Q534.2432006835937 95.74 534.4122006835937 95.74Q534.5812006835937 95.74 534.5812006835937 95.74Q535.2572006835937 95.74 535.7382006835937 95.259Q536.2192006835937 94.778 536.2452006835937 94.102ZM536.3232006835937 79.69800000000001H536.2452006835937Q536.2243073730468 79.022 535.7365100746154 78.541Q535.248712776184 78.06 534.5812006835937 78.06Q534.5812006835937 78.06 534.4147540283202 78.06Q534.2483073730468 78.06 534.2483073730468 78.06L534.2432006835937 77.8H536.3232006835937ZM571.5142641601562 77.8V96.0H566.8992006835937V77.8ZM566.9772006835937 94.102V96.0H564.8972006835937V95.74Q564.8972006835937 95.74 565.0662006835937 95.74Q565.2352006835937 95.74 565.2352006835937 95.74Q565.9112006835937 95.74 566.3922006835937 95.259Q566.8732006835937 94.778 566.8992006835937 94.102ZM566.9772006835937 79.69800000000001H566.8992006835937Q566.8732006835937 79.022 566.3922006835937 78.541Q565.9112006835937 78.06 565.2352006835937 78.06Q565.2352006835937 78.06 565.0662006835937 78.06Q564.8972006835937 78.06 564.8972006835937 78.06V77.8H566.9772006835937ZM571.4362641601562 94.102H571.5142641601562Q571.5402641601562 94.778 572.0212641601562 95.259Q572.5022641601562 95.74 573.1782641601562 95.74Q573.1782641601562 95.74 573.3342641601562 95.74Q573.4902641601562 95.74 573.5162641601562 95.74V96.0H571.4362641601562ZM571.4362641601562 79.69800000000001V77.8H573.5162641601562V78.06Q573.4902641601562 78.06 573.3342641601562 78.06Q573.1782641601562 78.06 573.1782641601562 78.06Q572.5022641601562 78.06 572.0212641601562 78.541Q571.5402641601562 79.022 571.5142641601562 79.69800000000001ZM589.2462641601562 77.878V96.0H584.6312006835936V77.878ZM595.5103979492187 77.774V78.9718662109375H578.3670668945311V77.774ZM595.5103979492187 78.8938662109375V82.25346484375L595.2503979492187 82.22746484375V81.99439794921875Q595.2503979492187 80.61313208007813 594.4506583251953 79.80549914550781Q593.6509187011718 78.9978662109375 592.2538662109374 78.9718662109375V78.8938662109375ZM595.5103979492187 77.306V78.06L592.3383979492187 77.774Q592.9103979492187 77.774 593.5473979492187 77.696Q594.1843979492187 77.618 594.7303979492187 77.514Q595.2763979492187 77.41 595.5103979492187 77.306ZM584.7092006835936 94.102V96.0H582.6292006835937V95.74Q582.6292006835937 95.74 582.7982006835937 95.74Q582.9672006835937 95.74 582.9672006835937 95.74Q583.6432006835937 95.74 584.1242006835937 95.259Q584.6052006835937 94.778 584.6312006835936 94.102ZM589.1682641601561 94.102H589.2462641601562Q589.2722641601562 94.778 589.7532641601562 95.259Q590.2342641601562 95.74 590.9102641601562 95.74Q590.9102641601562 95.74 591.0792641601562 95.74Q591.2482641601562 95.74 591.2482641601562 95.74V96.0H589.1682641601561ZM581.6235986328124 78.8938662109375V78.9718662109375Q580.221439453125 78.9978662109375 579.424253173828 79.80549914550781Q578.6270668945311 80.61313208007813 578.6270668945311 81.99439794921875V82.22746484375L578.3670668945311 82.25346484375V78.8938662109375ZM578.3670668945311 77.306Q578.6270668945311 77.41 579.1600668945312 77.514Q579.6930668945312 77.618 580.3430668945311 77.696Q580.9930668945311 77.774 581.5390668945312 77.774L578.3670668945311 78.06ZM612.6137324218748 88.905732421875Q611.7436528320311 88.905732421875 611.1235931396483 88.28567272949219Q610.5035334472655 87.66561303710938 610.5035334472655 86.79553344726563Q610.5035334472655 85.904560546875 611.1235931396483 85.29494750976562Q611.7436528320311 84.68533447265625 612.6137324218748 84.68533447265625Q613.5047053222655 84.68533447265625 614.1143183593749 85.29494750976562Q614.7239313964842 85.904560546875 614.7239313964842 86.79553344726563Q614.7239313964842 87.66561303710938 614.1143183593749 88.28567272949219Q613.5047053222655 88.905732421875 612.6137324218748 88.905732421875ZM650.035171875 77.436 650.2431718749999 80.61963842773437 642.1292802734374 93.6284267578125Q642.1292802734374 93.6284267578125 641.8611536865233 94.09132006835938Q641.5930270996092 94.55421337890625 641.3327938232421 95.22789331054688Q641.0725605468749 95.9015732421875 641.0781337890623 96.57293310546875H640.8390270996093L639.5975080566405 94.09920068359375ZM631.8722675781249 94.102V96.0H628.9862675781249V95.74Q629.0122675781249 95.74 629.2072675781249 95.74Q629.4022675781249 95.74 629.4022675781249 95.74Q630.1042675781249 95.74 630.6502675781248 95.311Q631.1962675781249 94.882 631.3002675781249 94.102ZM633.1486003417967 94.518Q633.1486003417967 94.544 633.1486003417967 94.57Q633.1486003417967 94.596 633.1486003417967 94.648Q633.1486003417967 95.064 633.4476003417967 95.41499999999999Q633.7466003417968 95.766 634.1626003417967 95.766H634.5734936523437V96.0H632.9666003417968V94.518ZM633.5218806152343 77.436H633.7609873046874L634.8033200683593 80.3907451171875L632.976813720703 96.0H631.0504809570311ZM633.7609873046874 77.436 642.5861591796875 90.66714990234375 640.8390270996093 96.57293310546875 633.0371608886718 84.65202197265626ZM650.2691718749999 77.436 652.818571533203 96.0H647.949081298828L646.6653344726561 85.27928784179687L650.035171875 77.436ZM651.9967849121093 94.102H652.5636782226561Q652.6936782226561 94.882 653.2292315673826 95.311Q653.7647849121092 95.74 654.4616782226561 95.74Q654.4616782226561 95.74 654.6592315673827 95.74Q654.8567849121093 95.74 654.8776782226562 95.74V96.0H651.9967849121093ZM647.7772946777343 94.518H647.9592946777343V96.0H646.3524013671874V95.766H646.7632946777343Q647.1844013671874 95.766 647.4808480224608 95.41499999999999Q647.7772946777343 95.064 647.7772946777343 94.648Q647.7772946777343 94.596 647.7772946777343 94.57Q647.7772946777343 94.544 647.7772946777343 94.518ZM667.2248535156249 77.22706689453125 675.9655190429686 95.844H670.517055908203L665.3050017089843 83.06088989257813ZM661.6348535156249 94.102Q661.4110668945311 94.622 661.5410668945311 94.98599999999999Q661.6710668945311 95.35 661.990960205078 95.54499999999999Q662.3108535156249 95.74 662.6228535156249 95.74H662.8568535156248V96.0H657.1712006835936V95.74Q657.1712006835936 95.74 657.2882006835937 95.74Q657.4052006835936 95.74 657.4052006835936 95.74Q658.0032006835936 95.74 658.6402006835935 95.363Q659.2772006835936 94.986 659.6932006835937 94.102ZM667.2248535156249 77.22706689453125 667.270813720703 80.8438916015625 660.8492802734373 95.922H658.850520751953L665.6109873046873 80.8661591796875Q665.7154538574217 80.67811938476562 665.9211337890624 80.2068662109375Q666.126813720703 79.73561303710937 666.3636003417968 79.163146484375Q666.6003869628905 78.59067993164062 666.7851735839843 78.06510668945313Q666.969960205078 77.53953344726563 666.9908535156248 77.22706689453125ZM669.6581481933592 90.09291870117187V91.29078491210937H662.1469475097655V90.09291870117187ZM669.7834826660155 94.102H675.1330524902343Q675.564839111328 94.986 676.1939458007811 95.363Q676.8230524902342 95.74 677.4210524902343 95.74Q677.4210524902343 95.74 677.5250524902342 95.74Q677.6290524902342 95.74 677.6290524902342 95.74V96.0H668.5614826660155V95.74H668.7954826660155Q669.3103759765623 95.74 669.7108226318358 95.311Q670.1112692871093 94.882 669.7834826660155 94.102ZM692.1422353515624 84.42300170898437 698.7740761718749 93.94273413085938Q699.3827561035155 94.81792041015625 700.0357760009764 95.26596020507813Q700.6887958984373 95.714 701.4947958984374 95.74V96.0H699.0187307128905Q698.7378374023436 96.0 698.0165643310545 95.97144665527344Q697.2952912597655 95.94289331054688 696.3706583251951 95.74766003417969Q695.4460253906249 95.5524267578125 694.5109458007812 95.05494030761719Q693.5758662109374 94.55745385742188 692.8831464843748 93.61958764648438Q692.7159999999999 93.38976123046875 692.3550198974608 92.87510119628907Q691.9940397949217 92.36044116210938 691.5297595214843 91.68003430175781Q691.0654792480467 90.99962744140625 690.5754322509764 90.28579382324219Q690.0853852539061 89.57196020507813 689.6768204752602 88.96293882242838Q689.2682556966145 88.35391743977864 689.0082599283853 87.96635837809245Q688.7482641601562 87.57879931640625 688.7482641601562 87.57879931640625ZM698.3399567871093 77.982 690.5032768554686 87.3698662109375 688.7482641601562 87.57879931640625 695.8982641601561 77.982ZM700.175743408203 77.8V78.0393725655692H700.071743408203Q699.213743408203 78.0393725655692 698.472743408203 78.38513293805804Q697.731743408203 78.73089331054688 697.211743408203 79.30799999999999L694.9469440917967 79.256Q695.2640507812499 78.814 695.0639440917968 78.424Q694.8638374023436 78.034 694.3299085286457 78.034H694.0629440917968V77.8H700.071743408203ZM687.9162641601562 77.8V96.0H683.3012006835936V77.8ZM683.3792006835936 94.102V96.0H681.2992006835937V95.74Q681.3409873046874 95.74 681.4786473388671 95.74Q681.6163073730468 95.74 681.6372006835936 95.74Q682.3132006835937 95.74 682.7942006835937 95.259Q683.2752006835937 94.778 683.3012006835936 94.102ZM683.3792006835936 79.69800000000001H683.3012006835936Q683.2752006835937 79.022 682.7942006835937 78.541Q682.3132006835937 78.06 681.6372006835936 78.06Q681.6163073730468 78.06 681.4786473388671 78.06Q681.3409873046874 78.06 681.2992006835937 78.06V77.8H683.3792006835936ZM687.8382641601561 94.102H687.9162641601562Q687.9422641601561 94.778 688.4232641601561 95.259Q688.9042641601561 95.74 689.5802641601562 95.74Q689.6220507812499 95.74 689.7587646484374 95.74Q689.8954785156249 95.74 689.9182641601561 95.74V96.0H687.8382641601561ZM687.8382641601561 79.69800000000001V77.8H689.9182641601561V78.06Q689.8922641601562 78.06 689.7571574707031 78.06Q689.6220507812499 78.06 689.5802641601562 78.06Q688.9042641601561 78.06 688.4232641601561 78.541Q687.9422641601561 79.022 687.9162641601562 79.69800000000001ZM712.0962641601561 77.8V96.0H707.4812006835936V77.8ZM718.9073310546873 94.7761337890625 719.7430634765623 96.0H712.018264160156V94.7761337890625ZM717.998264160156 86.43106689453126V87.62893310546875H712.018264160156V86.43106689453126ZM719.3251972656249 77.8V79.0238662109375H712.018264160156V77.8ZM720.9111972656249 90.32546826171875 719.8210634765624 96.0H714.4603979492185L715.3963979492186 94.7761337890625Q716.6699313964842 94.7761337890625 717.7080778808593 94.24266723632812Q718.7462243652342 93.70920068359375 719.501157470703 92.70982092285156Q720.2560905761717 91.71044116210938 720.6592331542967 90.32546826171875ZM717.998264160156 87.57693310546875V90.3375986328125H717.7382641601561V90.15653173828125Q717.7382641601561 89.07241235351563 717.0295245361326 88.36111938476563Q716.3207849121092 87.64982641601563 715.2366655273436 87.62893310546875V87.57693310546875ZM717.998264160156 83.7224013671875V86.48306689453125H715.2366655273436V86.43106689453126Q716.3207849121092 86.40506689453125 717.039971191406 85.68332727050782Q717.7591574707029 84.96158764648438 717.7382641601561 83.87746826171875V83.7224013671875ZM719.3251972656249 78.9458662109375V82.27946484375H719.0651972656249V82.02039794921875Q719.0651972656249 80.64423876953126 718.2680109863279 79.83405249023437Q717.470824707031 79.0238662109375 716.0686655273436 78.9978662109375V78.9458662109375ZM719.3251972656249 77.332V78.086L716.1531972656248 77.8Q716.7251972656248 77.8 717.3621972656249 77.72200000000001Q717.9991972656248 77.644 718.5451972656249 77.54Q719.0911972656248 77.436 719.3251972656249 77.332ZM707.5592006835935 94.102V96.0H705.4792006835936V95.74Q705.4792006835936 95.74 705.6482006835936 95.74Q705.8172006835936 95.74 705.8172006835936 95.74Q706.4932006835936 95.74 706.9742006835936 95.259Q707.4552006835936 94.778 707.4812006835936 94.102ZM707.5592006835935 79.69800000000001H707.4812006835936Q707.4603073730467 79.022 706.9725100746152 78.541Q706.4847127761839 78.06 705.8172006835936 78.06Q705.8172006835936 78.06 705.6507540283201 78.06Q705.4843073730467 78.06 705.4843073730467 78.06L705.4792006835936 77.8H707.5592006835935ZM742.7502641601561 77.8V96.0H738.1352006835936V77.8ZM738.2132006835935 94.102V96.0H736.1332006835936V95.74Q736.1332006835936 95.74 736.3022006835936 95.74Q736.4712006835936 95.74 736.4712006835936 95.74Q737.1472006835936 95.74 737.6282006835936 95.259Q738.1092006835936 94.778 738.1352006835936 94.102ZM738.2132006835935 79.69800000000001H738.1352006835936Q738.1092006835936 79.022 737.6282006835936 78.541Q737.1472006835936 78.06 736.4712006835936 78.06Q736.4712006835936 78.06 736.3022006835936 78.06Q736.1332006835936 78.06 736.1332006835936 78.06V77.8H738.2132006835935ZM742.672264160156 94.102H742.7502641601561Q742.7762641601561 94.778 743.2572641601561 95.259Q743.7382641601561 95.74 744.4142641601561 95.74Q744.4142641601561 95.74 744.5702641601561 95.74Q744.7262641601561 95.74 744.7522641601561 95.74V96.0H742.672264160156ZM742.672264160156 79.69800000000001V77.8H744.7522641601561V78.06Q744.7262641601561 78.06 744.5702641601561 78.06Q744.4142641601561 78.06 744.4142641601561 78.06Q743.7382641601561 78.06 743.2572641601561 78.541Q742.7762641601561 79.022 742.7502641601561 79.69800000000001ZM760.4822641601561 77.878V96.0H755.8672006835935V77.878ZM766.7463979492186 77.774V78.9718662109375H749.603066894531V77.774ZM766.7463979492186 78.8938662109375V82.25346484375L766.4863979492186 82.22746484375V81.99439794921875Q766.4863979492186 80.61313208007813 765.6866583251951 79.80549914550781Q764.8869187011717 78.9978662109375 763.4898662109373 78.9718662109375V78.8938662109375ZM766.7463979492186 77.306V78.06L763.5743979492186 77.774Q764.1463979492186 77.774 764.7833979492186 77.696Q765.4203979492186 77.618 765.9663979492186 77.514Q766.5123979492186 77.41 766.7463979492186 77.306ZM755.9452006835935 94.102V96.0H753.8652006835936V95.74Q753.8652006835936 95.74 754.0342006835936 95.74Q754.2032006835935 95.74 754.2032006835935 95.74Q754.8792006835936 95.74 755.3602006835936 95.259Q755.8412006835936 94.778 755.8672006835935 94.102ZM760.404264160156 94.102H760.4822641601561Q760.508264160156 94.778 760.989264160156 95.259Q761.470264160156 95.74 762.1462641601561 95.74Q762.1462641601561 95.74 762.3152641601561 95.74Q762.484264160156 95.74 762.484264160156 95.74V96.0H760.404264160156ZM752.8595986328123 78.8938662109375V78.9718662109375Q751.4574394531248 78.9978662109375 750.6602531738279 79.80549914550781Q749.863066894531 80.61313208007813 749.863066894531 81.99439794921875V82.22746484375L749.603066894531 82.25346484375V78.8938662109375ZM749.603066894531 77.306Q749.863066894531 77.41 750.396066894531 77.514Q750.929066894531 77.618 751.579066894531 77.696Q752.229066894531 77.774 752.775066894531 77.774L749.603066894531 78.06ZM788.2284123535154 77.436Q788.7697722167966 77.436 789.6372984619138 77.488Q790.504824707031 77.53999999999999 791.4299241943356 77.631Q792.3550236816403 77.72200000000001 793.0558699951168 77.813Q793.7567163085935 77.904 793.9856096191404 78.008L793.5677434082029 81.729732421875H793.312850097656Q793.312850097656 80.33547924804688 792.2563636474606 79.48467272949219Q791.1998771972653 78.6338662109375 789.4137578124997 78.6338662109375Q787.8583979492184 78.6338662109375 786.9326113281247 79.30103979492188Q786.006824707031 79.96821337890626 785.9441447753903 80.97617358398438Q785.8814648437498 81.82535986328125 786.4994377441403 82.37344665527344Q787.117410644531 82.92153344726563 788.0079169921872 83.38906689453125L792.9209838867185 86.13620239257813Q794.2442099609373 86.8015224609375 794.9638627929685 87.9678154296875Q795.6835156249997 89.1341083984375 795.5790490722653 90.81252075195313Q795.4327958984372 93.47196020507812 793.4512099609373 94.91798010253906Q791.4696240234373 96.364 788.0635986328123 96.364Q786.7292260742184 96.364 785.5812730712887 96.15042675781251Q784.4333200683591 95.936853515625 783.5776401367184 95.57006689453125Q782.7219602050778 95.2032802734375 782.2437468261717 94.72506689453125Q781.9986003417966 94.12102709960938 782.0403869628904 93.24630737304688Q782.0821735839842 92.37158764648437 782.3428734130857 91.4945478515625Q782.6035732421873 90.61750805664063 782.9736130371091 90.0664013671875H783.2076130371091Q783.1193996582028 91.41329467773437 783.733652832031 92.58933447265625Q784.3479060058592 93.76537426757812 785.5687523193358 94.47086071777343Q786.7895986328123 95.17634716796876 788.476824707031 95.1661337890625Q790.2620109863278 95.15081372070313 791.1845444335935 94.34272692871093Q792.1070778808592 93.53464013671875 792.1070778808592 92.43429296875Q792.1070778808592 91.61761303710938 791.5441248779294 90.9543797607422Q790.9811718749997 90.291146484375 789.6932260742185 89.66110668945312L785.3071320800778 87.16422436523438Q783.7122929687497 86.35265112304688 782.9928734130856 85.0115516357422Q782.2734538574216 83.6704521484375 782.4614936523435 82.03893310546874Q782.6077468261716 80.61264013671875 783.3366799316403 79.57774682617188Q784.0656130371091 78.542853515625 785.3015461425778 77.98942675781251Q786.5374792480466 77.436 788.2284123535154 77.436ZM794.0273962402341 77.696 793.9647163085936 78.242H790.5470778808591V77.696ZM820.9591718749998 77.436 821.1671718749998 80.61963842773437 813.0532802734373 93.6284267578125Q813.0532802734373 93.6284267578125 812.7851536865232 94.09132006835938Q812.5170270996091 94.55421337890625 812.2567938232419 95.22789331054688Q811.9965605468748 95.9015732421875 812.0021337890622 96.57293310546875H811.7630270996092L810.5215080566404 94.09920068359375ZM802.7962675781248 94.102V96.0H799.9102675781247V95.74Q799.9362675781248 95.74 800.1312675781248 95.74Q800.3262675781248 95.74 800.3262675781248 95.74Q801.0282675781248 95.74 801.5742675781248 95.311Q802.1202675781248 94.882 802.2242675781248 94.102ZM804.0726003417966 94.518Q804.0726003417966 94.544 804.0726003417966 94.57Q804.0726003417966 94.596 804.0726003417966 94.648Q804.0726003417966 95.064 804.3716003417967 95.41499999999999Q804.6706003417967 95.766 805.0866003417966 95.766H805.4974936523436V96.0H803.8906003417967V94.518ZM804.4458806152342 77.436H804.6849873046873L805.7273200683592 80.3907451171875L803.9008137207029 96.0H801.974480957031ZM804.6849873046873 77.436 813.5101591796873 90.66714990234375 811.7630270996092 96.57293310546875 803.9611608886717 84.65202197265626ZM821.1931718749997 77.436 823.7425715332029 96.0H818.8730812988279L817.589334472656 85.27928784179687L820.9591718749998 77.436ZM822.9207849121092 94.102H823.487678222656Q823.617678222656 94.882 824.1532315673826 95.311Q824.6887849121091 95.74 825.385678222656 95.74Q825.385678222656 95.74 825.5832315673825 95.74Q825.7807849121091 95.74 825.801678222656 95.74V96.0H822.9207849121092ZM818.7012946777342 94.518H818.8832946777342V96.0H817.2764013671873V95.766H817.6872946777341Q818.1084013671873 95.766 818.4048480224608 95.41499999999999Q818.7012946777342 95.064 818.7012946777342 94.648Q818.7012946777342 94.596 818.7012946777342 94.57Q818.7012946777342 94.544 818.7012946777342 94.518ZM838.1488535156248 77.22706689453125 846.8895190429685 95.844H841.4410559082029L836.2290017089841 83.06088989257813ZM832.5588535156247 94.102Q832.335066894531 94.622 832.465066894531 94.98599999999999Q832.595066894531 95.35 832.9149602050779 95.54499999999999Q833.2348535156248 95.74 833.5468535156248 95.74H833.7808535156247V96.0H828.0952006835935V95.74Q828.0952006835935 95.74 828.2122006835934 95.74Q828.3292006835935 95.74 828.3292006835935 95.74Q828.9272006835935 95.74 829.5642006835935 95.363Q830.2012006835935 94.986 830.6172006835935 94.102ZM838.1488535156248 77.22706689453125 838.1948137207029 80.8438916015625 831.7732802734372 95.922H829.7745207519529L836.5349873046872 80.8661591796875Q836.6394538574216 80.67811938476562 836.8451337890622 80.2068662109375Q837.0508137207029 79.73561303710937 837.2876003417966 79.163146484375Q837.5243869628904 78.59067993164062 837.7091735839841 78.06510668945313Q837.8939602050779 77.53953344726563 837.9148535156247 77.22706689453125ZM840.5821481933591 90.09291870117187V91.29078491210937H833.0709475097653V90.09291870117187ZM840.7074826660154 94.102H846.0570524902341Q846.4888391113278 94.986 847.117945800781 95.363Q847.7470524902341 95.74 848.3450524902341 95.74Q848.3450524902341 95.74 848.4490524902342 95.74Q848.5530524902341 95.74 848.5530524902341 95.74V96.0H839.4854826660154V95.74H839.7194826660153Q840.2343759765622 95.74 840.6348226318357 95.311Q841.0352692871091 94.882 840.7074826660154 94.102ZM858.6276240234372 77.8H861.8757578124997Q863.0457578124997 77.8 864.2141375732419 78.03353344726563Q865.3825173339841 78.26706689453125 866.3250236816403 78.82049365234374Q867.2675300292966 79.37392041015624 867.8379097900388 80.32315368652343Q868.408289550781 81.27238696289062 868.408289550781 82.70889331054687Q868.408289550781 83.74796020507813 868.0008826904294 84.81883361816406Q867.5934758300779 85.88970703125 866.6760490722654 86.66738696289062Q865.7586223144529 87.44506689453125 864.1972226562498 87.654Q865.1615554199216 87.94046655273438 865.9113818359372 88.65616638183593Q866.6612082519529 89.3718662109375 867.1138881835935 90.10079931640625Q867.1556748046872 90.16347924804687 867.3917615966794 90.55556604003905Q867.6278483886716 90.94765283203125 867.9937019042966 91.51895300292969Q868.3595554199217 92.09025317382813 868.7593022460935 92.68778662109375Q869.1590490722654 93.28532006835937 869.5281557617185 93.764Q870.1108356933591 94.52403979492188 870.5681557617186 94.945146484375Q871.0254758300779 95.36625317382813 871.5111159667966 95.54267993164063Q871.9967561035154 95.71910668945313 872.646289550781 95.74V96.0H869.7537578124998Q868.2652514648435 96.0 867.0286185302732 95.78225317382812Q865.7919855957028 95.56450634765625 864.8283526611326 94.95837976074219Q863.8647197265623 94.35225317382813 863.1353200683591 93.16877392578125Q862.8901735839842 92.772267578125 862.6749801025388 92.29916088867188Q862.4597866210935 91.82605419921875 862.2608463134763 91.33554064941407Q862.0619060058591 90.84502709960938 861.8968590087889 90.38840686035157Q861.7318120117185 89.93178662109375 861.6027451171872 89.53435986328125Q861.473678222656 89.13693310546876 861.3798916015622 88.85Q861.0739313964841 87.97017358398438 860.6639711914061 87.59132006835938Q860.2540109863279 87.21246655273437 859.8236240234372 87.108V86.848Q859.9071972656247 86.848 860.0908175048826 86.85055334472656Q860.2744377441404 86.85310668945313 860.4285715332029 86.848Q861.1463581542966 86.84289331054687 861.7643183593748 86.53553344726562Q862.3822785644529 86.22817358398437 862.8335588378905 85.55170703125Q863.2848391113279 84.87524047851562 863.460799316406 83.74702709960937Q863.4970126953123 83.52370703125 863.5281193847654 83.24096020507812Q863.5592260742185 82.95821337890625 863.5332260742185 82.584Q863.4445461425779 80.69064013671876 862.5944394531248 79.87791320800781Q861.7443327636717 79.06518627929688 860.5181591796872 79.0498662109375Q860.2707053222654 79.03965283203125 859.9529114990232 79.04220617675782Q859.635117675781 79.04475952148438 859.3449440917966 79.04475952148438Q859.0547705078122 79.04475952148438 858.8876240234372 79.04475952148438Q858.8876240234372 79.03965283203125 858.8226240234371 78.72973962402344Q858.7576240234372 78.41982641601562 858.6926240234372 78.10991320800781Q858.6276240234372 77.8 858.6276240234372 77.8ZM858.9656240234373 77.8V96.0H854.3296672363279V77.8ZM854.4076672363278 94.102V96.0H852.3276672363279V95.74Q852.3694538574216 95.74 852.5071138916013 95.74Q852.644773925781 95.74 852.6656672363279 95.74Q853.3416672363279 95.74 853.8226672363279 95.259Q854.3036672363279 94.778 854.3296672363279 94.102ZM854.4076672363278 79.69800000000001H854.3296672363279Q854.3036672363279 79.022 853.8226672363279 78.541Q853.3416672363279 78.06 852.6656672363279 78.06Q852.644773925781 78.06 852.5071138916013 78.06Q852.3694538574216 78.06 852.3276672363279 78.06V77.8H854.4076672363278ZM858.8876240234372 94.102H858.9656240234373Q858.9656240234373 94.778 859.4596240234373 95.259Q859.9536240234372 95.74 860.6296240234373 95.74Q860.671410644531 95.74 860.7960706787107 95.74Q860.9207307128904 95.74 860.9416240234373 95.74V96.0H858.8876240234372ZM886.140264160156 77.878V96.0H881.5252006835934V77.878ZM892.4043979492185 77.774V78.9718662109375H875.2610668945309V77.774ZM892.4043979492185 78.8938662109375V82.25346484375L892.1443979492185 82.22746484375V81.99439794921875Q892.1443979492185 80.61313208007813 891.344658325195 79.80549914550781Q890.5449187011716 78.9978662109375 889.1478662109372 78.9718662109375V78.8938662109375ZM892.4043979492185 77.306V78.06L889.2323979492185 77.774Q889.8043979492185 77.774 890.4413979492185 77.696Q891.0783979492185 77.618 891.6243979492185 77.514Q892.1703979492185 77.41 892.4043979492185 77.306ZM881.6032006835934 94.102V96.0H879.5232006835935V95.74Q879.5232006835935 95.74 879.6922006835935 95.74Q879.8612006835934 95.74 879.8612006835934 95.74Q880.5372006835935 95.74 881.0182006835935 95.259Q881.4992006835935 94.778 881.5252006835934 94.102ZM886.0622641601559 94.102H886.140264160156Q886.166264160156 94.778 886.6472641601559 95.259Q887.1282641601559 95.74 887.804264160156 95.74Q887.804264160156 95.74 887.973264160156 95.74Q888.142264160156 95.74 888.142264160156 95.74V96.0H886.0622641601559ZM878.5175986328122 78.8938662109375V78.9718662109375Q877.1154394531247 78.9978662109375 876.3182531738278 79.80549914550781Q875.5210668945309 80.61313208007813 875.5210668945309 81.99439794921875V82.22746484375L875.2610668945309 82.25346484375V78.8938662109375ZM875.2610668945309 77.306Q875.5210668945309 77.41 876.0540668945309 77.514Q876.587066894531 77.618 877.2370668945309 77.696Q877.8870668945309 77.774 878.433066894531 77.774L875.2610668945309 78.06ZM903.872264160156 77.8V96.0H899.2572006835934V77.8ZM910.6833310546872 94.7761337890625 911.5190634765621 96.0H903.7942641601559V94.7761337890625ZM909.7742641601559 86.43106689453126V87.62893310546875H903.7942641601559V86.43106689453126ZM911.1011972656247 77.8V79.0238662109375H903.7942641601559V77.8ZM912.6871972656247 90.32546826171875 911.5970634765622 96.0H906.2363979492184L907.1723979492184 94.7761337890625Q908.4459313964841 94.7761337890625 909.4840778808591 94.24266723632812Q910.522224365234 93.70920068359375 911.2771574707028 92.70982092285156Q912.0320905761715 91.71044116210938 912.4352331542965 90.32546826171875ZM909.7742641601559 87.57693310546875V90.3375986328125H909.5142641601559V90.15653173828125Q909.5142641601559 89.07241235351563 908.8055245361325 88.36111938476563Q908.096784912109 87.64982641601563 907.0126655273434 87.62893310546875V87.57693310546875ZM909.7742641601559 83.7224013671875V86.48306689453125H907.0126655273434V86.43106689453126Q908.096784912109 86.40506689453125 908.8159711914059 85.68332727050782Q909.5351574707028 84.96158764648438 909.5142641601559 83.87746826171875V83.7224013671875ZM911.1011972656247 78.9458662109375V82.27946484375H910.8411972656247V82.02039794921875Q910.8411972656247 80.64423876953126 910.0440109863277 79.83405249023437Q909.2468247070309 79.0238662109375 907.8446655273434 78.9978662109375V78.9458662109375ZM911.1011972656247 77.332V78.086L907.9291972656247 77.8Q908.5011972656247 77.8 909.1381972656247 77.72200000000001Q909.7751972656247 77.644 910.3211972656247 77.54Q910.8671972656247 77.436 911.1011972656247 77.332ZM899.3352006835934 94.102V96.0H897.2552006835934V95.74Q897.2552006835934 95.74 897.4242006835934 95.74Q897.5932006835934 95.74 897.5932006835934 95.74Q898.2692006835935 95.74 898.7502006835934 95.259Q899.2312006835934 94.778 899.2572006835934 94.102ZM899.3352006835934 79.69800000000001H899.2572006835934Q899.2363073730465 79.022 898.7485100746151 78.541Q898.2607127761837 78.06 897.5932006835934 78.06Q897.5932006835934 78.06 897.4267540283199 78.06Q897.2603073730465 78.06 897.2603073730465 78.06L897.2552006835934 77.8H899.3352006835934ZM924.1736240234371 77.8H927.4217578124997Q928.5917578124996 77.8 929.7601375732418 78.03353344726563Q930.928517333984 78.26706689453125 931.8710236816403 78.82049365234374Q932.8135300292965 79.37392041015624 933.3839097900387 80.32315368652343Q933.9542895507809 81.27238696289062 933.9542895507809 82.70889331054687Q933.9542895507809 83.74796020507813 933.5468826904294 84.81883361816406Q933.1394758300778 85.88970703125 932.2220490722652 86.66738696289062Q931.3046223144528 87.44506689453125 929.7432226562497 87.654Q930.7075554199215 87.94046655273438 931.4573818359372 88.65616638183593Q932.2072082519528 89.3718662109375 932.6598881835935 90.10079931640625Q932.7016748046872 90.16347924804687 932.9377615966794 90.55556604003905Q933.1738483886716 90.94765283203125 933.5397019042966 91.51895300292969Q933.9055554199216 92.09025317382813 934.3053022460934 92.68778662109375Q934.7050490722653 93.28532006835937 935.0741557617184 93.764Q935.6568356933591 94.52403979492188 936.1141557617184 94.945146484375Q936.5714758300778 95.36625317382813 937.0571159667966 95.54267993164063Q937.5427561035153 95.71910668945313 938.192289550781 95.74V96.0H935.2997578124997Q933.8112514648434 96.0 932.574618530273 95.78225317382812Q931.3379855957028 95.56450634765625 930.3743526611324 94.95837976074219Q929.4107197265622 94.35225317382813 928.681320068359 93.16877392578125Q928.4361735839841 92.772267578125 928.2209801025388 92.29916088867188Q928.0057866210934 91.82605419921875 927.8068463134762 91.33554064941407Q927.607906005859 90.84502709960938 927.4428590087887 90.38840686035157Q927.2778120117184 89.93178662109375 927.1487451171872 89.53435986328125Q927.0196782226559 89.13693310546876 926.9258916015622 88.85Q926.619931396484 87.97017358398438 926.2099711914059 87.59132006835938Q925.8000109863278 87.21246655273437 925.3696240234372 87.108V86.848Q925.4531972656247 86.848 925.6368175048825 86.85055334472656Q925.8204377441403 86.85310668945313 925.9745715332028 86.848Q926.6923581542966 86.84289331054687 927.3103183593746 86.53553344726562Q927.9282785644527 86.22817358398437 928.3795588378903 85.55170703125Q928.8308391113278 84.87524047851562 929.0067993164059 83.74702709960937Q929.0430126953122 83.52370703125 929.0741193847653 83.24096020507812Q929.1052260742184 82.95821337890625 929.0792260742185 82.584Q928.9905461425778 80.69064013671876 928.1404394531247 79.87791320800781Q927.2903327636716 79.06518627929688 926.0641591796872 79.0498662109375Q925.8167053222653 79.03965283203125 925.498911499023 79.04220617675782Q925.1811176757809 79.04475952148438 924.8909440917965 79.04475952148438Q924.6007705078122 79.04475952148438 924.4336240234371 79.04475952148438Q924.4336240234371 79.03965283203125 924.3686240234372 78.72973962402344Q924.3036240234371 78.41982641601562 924.2386240234371 78.10991320800781Q924.1736240234371 77.8 924.1736240234371 77.8ZM924.5116240234372 77.8V96.0H919.8756672363278V77.8ZM919.9536672363278 94.102V96.0H917.8736672363278V95.74Q917.9154538574215 95.74 918.0531138916012 95.74Q918.190773925781 95.74 918.2116672363278 95.74Q918.8876672363278 95.74 919.3686672363278 95.259Q919.8496672363278 94.778 919.8756672363278 94.102ZM919.9536672363278 79.69800000000001H919.8756672363278Q919.8496672363278 79.022 919.3686672363278 78.541Q918.8876672363278 78.06 918.2116672363278 78.06Q918.190773925781 78.06 918.0531138916012 78.06Q917.9154538574215 78.06 917.8736672363278 78.06V77.8H919.9536672363278ZM924.4336240234371 94.102H924.5116240234372Q924.5116240234372 94.778 925.0056240234371 95.259Q925.4996240234371 95.74 926.1756240234372 95.74Q926.2174106445309 95.74 926.3420706787106 95.74Q926.4667307128902 95.74 926.4876240234372 95.74V96.0H924.4336240234371Z" fill="#ffe2cc" filter="url(#hot)"><animate attributeName="opacity" values="1;.8;1;.9;1" dur="2.4s" repeatCount="indefinite"/></path>
<g filter="url(#emberGlow)"><circle cx="732" cy="310" r="1.7" fill="#ffd27a"><animate attributeName="cy" values="310;-20" dur="6.9s" begin="-6.1s" repeatCount="indefinite"/><animate attributeName="cx" values="732;723;728" dur="6.9s" begin="-1.7s" repeatCount="indefinite"/><animate attributeName="opacity" values="0;1;.8;0" dur="6.9s" begin="-0.7s" repeatCount="indefinite"/></circle>
<circle cx="752" cy="310" r="2.6" fill="#ffd27a"><animate attributeName="cy" values="310;-20" dur="4.0s" begin="-3.9s" repeatCount="indefinite"/><animate attributeName="cx" values="752;804;773" dur="4.0s" begin="-2.8s" repeatCount="indefinite"/><animate attributeName="opacity" values="0;1;.8;0" dur="4.0s" begin="-3.9s" repeatCount="indefinite"/></circle>
<circle cx="1180" cy="310" r="1.5" fill="#ffd27a"><animate attributeName="cy" values="310;-20" dur="5.9s" begin="-4.3s" repeatCount="indefinite"/><animate attributeName="cx" values="1180;1209;1192" dur="5.9s" begin="-2.0s" repeatCount="indefinite"/><animate attributeName="opacity" values="0;1;.8;0" dur="5.9s" begin="-3.2s" repeatCount="indefinite"/></circle>
<circle cx="706" cy="310" r="2.9" fill="#ffd27a"><animate attributeName="cy" values="310;-20" dur="3.2s" begin="-1.0s" repeatCount="indefinite"/><animate attributeName="cx" values="706;691;700" dur="3.2s" begin="-2.5s" repeatCount="indefinite"/><animate attributeName="opacity" values="0;1;.8;0" dur="3.2s" begin="-0.4s" repeatCount="indefinite"/></circle>
<circle cx="74" cy="310" r="1.4" fill="#ffd27a"><animate attributeName="cy" values="310;-20" dur="3.5s" begin="-3.0s" repeatCount="indefinite"/><animate attributeName="cx" values="74;66;71" dur="3.5s" begin="-1.2s" repeatCount="indefinite"/><animate attributeName="opacity" values="0;1;.8;0" dur="3.5s" begin="-0.4s" repeatCount="indefinite"/></circle>
<circle cx="804" cy="310" r="1.9" fill="#ffd27a"><animate attributeName="cy" values="310;-20" dur="5.3s" begin="-2.4s" repeatCount="indefinite"/><animate attributeName="cx" values="804;834;816" dur="5.3s" begin="-3.9s" repeatCount="indefinite"/><animate attributeName="opacity" values="0;1;.8;0" dur="5.3s" begin="-3.3s" repeatCount="indefinite"/></circle>
<circle cx="1022" cy="310" r="2.7" fill="#ffd27a"><animate attributeName="cy" values="310;-20" dur="6.6s" begin="-1.9s" repeatCount="indefinite"/><animate attributeName="cx" values="1022;1052;1034" dur="6.6s" begin="-3.3s" repeatCount="indefinite"/><animate attributeName="opacity" values="0;1;.8;0" dur="6.6s" begin="-5.1s" repeatCount="indefinite"/></circle>
<circle cx="942" cy="310" r="2.7" fill="#ffd27a"><animate attributeName="cy" values="310;-20" dur="6.4s" begin="-3.4s" repeatCount="indefinite"/><animate attributeName="cx" values="942;981;957" dur="6.4s" begin="-4.1s" repeatCount="indefinite"/><animate attributeName="opacity" values="0;1;.8;0" dur="6.4s" begin="-0.3s" repeatCount="indefinite"/></circle>
<circle cx="573" cy="310" r="2.7" fill="#ffd27a"><animate attributeName="cy" values="310;-20" dur="6.7s" begin="-2.9s" repeatCount="indefinite"/><animate attributeName="cx" values="573;615;590" dur="6.7s" begin="-1.5s" repeatCount="indefinite"/><animate attributeName="opacity" values="0;1;.8;0" dur="6.7s" begin="-5.9s" repeatCount="indefinite"/></circle>
<circle cx="789" cy="310" r="1.6" fill="#ffd27a"><animate attributeName="cy" values="310;-20" dur="3.2s" begin="-1.8s" repeatCount="indefinite"/><animate attributeName="cx" values="789;834;807" dur="3.2s" begin="-0.3s" repeatCount="indefinite"/><animate attributeName="opacity" values="0;1;.8;0" dur="3.2s" begin="-3.1s" repeatCount="indefinite"/></circle>
<circle cx="705" cy="310" r="2.7" fill="#ffd27a"><animate attributeName="cy" values="310;-20" dur="6.2s" begin="-3.3s" repeatCount="indefinite"/><animate attributeName="cx" values="705;675;693" dur="6.2s" begin="-1.1s" repeatCount="indefinite"/><animate attributeName="opacity" values="0;1;.8;0" dur="6.2s" begin="-3.8s" repeatCount="indefinite"/></circle>
<circle cx="522" cy="310" r="2.8" fill="#ffd27a"><animate attributeName="cy" values="310;-20" dur="3.5s" begin="-1.3s" repeatCount="indefinite"/><animate attributeName="cx" values="522;486;507" dur="3.5s" begin="-0.0s" repeatCount="indefinite"/><animate attributeName="opacity" values="0;1;.8;0" dur="3.5s" begin="-1.4s" repeatCount="indefinite"/></circle>
<circle cx="1155" cy="310" r="2.9" fill="#ffd27a"><animate attributeName="cy" values="310;-20" dur="3.7s" begin="-0.8s" repeatCount="indefinite"/><animate attributeName="cx" values="1155;1195;1171" dur="3.7s" begin="-0.9s" repeatCount="indefinite"/><animate attributeName="opacity" values="0;1;.8;0" dur="3.7s" begin="-2.4s" repeatCount="indefinite"/></circle>
<circle cx="353" cy="310" r="1.6" fill="#ffd27a"><animate attributeName="cy" values="310;-20" dur="3.3s" begin="-0.6s" repeatCount="indefinite"/><animate attributeName="cx" values="353;314;337" dur="3.3s" begin="-3.0s" repeatCount="indefinite"/><animate attributeName="opacity" values="0;1;.8;0" dur="3.3s" begin="-0.1s" repeatCount="indefinite"/></circle>
<circle cx="648" cy="310" r="1.6" fill="#ffd27a"><animate attributeName="cy" values="310;-20" dur="5.9s" begin="-2.2s" repeatCount="indefinite"/><animate attributeName="cx" values="648;589;624" dur="5.9s" begin="-4.3s" repeatCount="indefinite"/><animate attributeName="opacity" values="0;1;.8;0" dur="5.9s" begin="-0.2s" repeatCount="indefinite"/></circle>
<circle cx="494" cy="310" r="1.9" fill="#ffd27a"><animate attributeName="cy" values="310;-20" dur="4.9s" begin="-0.4s" repeatCount="indefinite"/><animate attributeName="cx" values="494;509;500" dur="4.9s" begin="-4.3s" repeatCount="indefinite"/><animate attributeName="opacity" values="0;1;.8;0" dur="4.9s" begin="-1.3s" repeatCount="indefinite"/></circle>
<circle cx="926" cy="310" r="1.5" fill="#ffd27a"><animate attributeName="cy" values="310;-20" dur="3.4s" begin="-0.3s" repeatCount="indefinite"/><animate attributeName="cx" values="926;890;912" dur="3.4s" begin="-0.8s" repeatCount="indefinite"/><animate attributeName="opacity" values="0;1;.8;0" dur="3.4s" begin="-0.5s" repeatCount="indefinite"/></circle>
<circle cx="104" cy="310" r="2.9" fill="#ffd27a"><animate attributeName="cy" values="310;-20" dur="5.1s" begin="-2.6s" repeatCount="indefinite"/><animate attributeName="cx" values="104;103;104" dur="5.1s" begin="-4.1s" repeatCount="indefinite"/><animate attributeName="opacity" values="0;1;.8;0" dur="5.1s" begin="-0.2s" repeatCount="indefinite"/></circle>
<circle cx="54" cy="310" r="2.5" fill="#ffd27a"><animate attributeName="cy" values="310;-20" dur="3.0s" begin="-1.9s" repeatCount="indefinite"/><animate attributeName="cx" values="54;55;55" dur="3.0s" begin="-2.6s" repeatCount="indefinite"/><animate attributeName="opacity" values="0;1;.8;0" dur="3.0s" begin="-0.0s" repeatCount="indefinite"/></circle>
<circle cx="482" cy="310" r="1.8" fill="#ffd27a"><animate attributeName="cy" values="310;-20" dur="5.3s" begin="-4.0s" repeatCount="indefinite"/><animate attributeName="cx" values="482;426;460" dur="5.3s" begin="-5.1s" repeatCount="indefinite"/><animate attributeName="opacity" values="0;1;.8;0" dur="5.3s" begin="-2.9s" repeatCount="indefinite"/></circle>
<circle cx="799" cy="310" r="2.9" fill="#ffd27a"><animate attributeName="cy" values="310;-20" dur="6.4s" begin="-3.1s" repeatCount="indefinite"/><animate attributeName="cx" values="799;838;815" dur="6.4s" begin="-0.6s" repeatCount="indefinite"/><animate attributeName="opacity" values="0;1;.8;0" dur="6.4s" begin="-5.1s" repeatCount="indefinite"/></circle>
<circle cx="1012" cy="310" r="2.6" fill="#ffd27a"><animate attributeName="cy" values="310;-20" dur="4.3s" begin="-2.7s" repeatCount="indefinite"/><animate attributeName="cx" values="1012;1069;1035" dur="4.3s" begin="-1.3s" repeatCount="indefinite"/><animate attributeName="opacity" values="0;1;.8;0" dur="4.3s" begin="-3.3s" repeatCount="indefinite"/></circle>
<circle cx="269" cy="310" r="1.7" fill="#ffd27a"><animate attributeName="cy" values="310;-20" dur="6.6s" begin="-5.8s" repeatCount="indefinite"/><animate attributeName="cx" values="269;216;248" dur="6.6s" begin="-2.6s" repeatCount="indefinite"/><animate attributeName="opacity" values="0;1;.8;0" dur="6.6s" begin="-3.8s" repeatCount="indefinite"/></circle>
<circle cx="829" cy="310" r="3.0" fill="#ffd27a"><animate attributeName="cy" values="310;-20" dur="3.9s" begin="-2.0s" repeatCount="indefinite"/><animate attributeName="cx" values="829;780;810" dur="3.9s" begin="-0.9s" repeatCount="indefinite"/><animate attributeName="opacity" values="0;1;.8;0" dur="3.9s" begin="-1.6s" repeatCount="indefinite"/></circle>
<circle cx="132" cy="310" r="1.4" fill="#ffd27a"><animate attributeName="cy" values="310;-20" dur="5.3s" begin="-1.4s" repeatCount="indefinite"/><animate attributeName="cx" values="132;78;111" dur="5.3s" begin="-2.0s" repeatCount="indefinite"/><animate attributeName="opacity" values="0;1;.8;0" dur="5.3s" begin="-0.5s" repeatCount="indefinite"/></circle>
<circle cx="967" cy="310" r="3.0" fill="#ffd27a"><animate attributeName="cy" values="310;-20" dur="3.1s" begin="-0.6s" repeatCount="indefinite"/><animate attributeName="cx" values="967;1004;981" dur="3.1s" begin="-2.3s" repeatCount="indefinite"/><animate attributeName="opacity" values="0;1;.8;0" dur="3.1s" begin="-0.2s" repeatCount="indefinite"/></circle>
<circle cx="895" cy="310" r="3.1" fill="#ffd27a"><animate attributeName="cy" values="310;-20" dur="4.0s" begin="-1.4s" repeatCount="indefinite"/><animate attributeName="cx" values="895;854;879" dur="4.0s" begin="-3.5s" repeatCount="indefinite"/><animate attributeName="opacity" values="0;1;.8;0" dur="4.0s" begin="-3.1s" repeatCount="indefinite"/></circle>
<circle cx="188" cy="310" r="3.0" fill="#ffd27a"><animate attributeName="cy" values="310;-20" dur="6.0s" begin="-5.8s" repeatCount="indefinite"/><animate attributeName="cx" values="188;243;210" dur="6.0s" begin="-0.9s" repeatCount="indefinite"/><animate attributeName="opacity" values="0;1;.8;0" dur="6.0s" begin="-4.3s" repeatCount="indefinite"/></circle>
<circle cx="29" cy="310" r="1.6" fill="#ffd27a"><animate attributeName="cy" values="310;-20" dur="5.1s" begin="-1.1s" repeatCount="indefinite"/><animate attributeName="cx" values="29;-3;17" dur="5.1s" begin="-1.8s" repeatCount="indefinite"/><animate attributeName="opacity" values="0;1;.8;0" dur="5.1s" begin="-2.4s" repeatCount="indefinite"/></circle>
<circle cx="1101" cy="310" r="2.4" fill="#ffd27a"><animate attributeName="cy" values="310;-20" dur="5.2s" begin="-1.0s" repeatCount="indefinite"/><animate attributeName="cx" values="1101;1128;1112" dur="5.2s" begin="-4.2s" repeatCount="indefinite"/><animate attributeName="opacity" values="0;1;.8;0" dur="5.2s" begin="-4.0s" repeatCount="indefinite"/></circle>
<circle cx="977" cy="310" r="2.1" fill="#ffd27a"><animate attributeName="cy" values="310;-20" dur="5.2s" begin="-2.4s" repeatCount="indefinite"/><animate attributeName="cx" values="977;926;957" dur="5.2s" begin="-3.3s" repeatCount="indefinite"/><animate attributeName="opacity" values="0;1;.8;0" dur="5.2s" begin="-4.9s" repeatCount="indefinite"/></circle>
<circle cx="1075" cy="310" r="1.9" fill="#ffd27a"><animate attributeName="cy" values="310;-20" dur="6.0s" begin="-5.8s" repeatCount="indefinite"/><animate attributeName="cx" values="1075;1118;1092" dur="6.0s" begin="-4.1s" repeatCount="indefinite"/><animate attributeName="opacity" values="0;1;.8;0" dur="6.0s" begin="-2.0s" repeatCount="indefinite"/></circle>
<circle cx="1048" cy="310" r="1.2" fill="#ffd27a"><animate attributeName="cy" values="310;-20" dur="5.3s" begin="-4.7s" repeatCount="indefinite"/><animate attributeName="cx" values="1048;1043;1046" dur="5.3s" begin="-3.3s" repeatCount="indefinite"/><animate attributeName="opacity" values="0;1;.8;0" dur="5.3s" begin="-1.1s" repeatCount="indefinite"/></circle>
<circle cx="199" cy="310" r="1.3" fill="#ffd27a"><animate attributeName="cy" values="310;-20" dur="6.0s" begin="-2.2s" repeatCount="indefinite"/><animate attributeName="cx" values="199;233;212" dur="6.0s" begin="-1.3s" repeatCount="indefinite"/><animate attributeName="opacity" values="0;1;.8;0" dur="6.0s" begin="-3.3s" repeatCount="indefinite"/></circle>
<circle cx="235" cy="310" r="2.3" fill="#ffd27a"><animate attributeName="cy" values="310;-20" dur="4.4s" begin="-3.0s" repeatCount="indefinite"/><animate attributeName="cx" values="235;213;226" dur="4.4s" begin="-1.1s" repeatCount="indefinite"/><animate attributeName="opacity" values="0;1;.8;0" dur="4.4s" begin="-1.4s" repeatCount="indefinite"/></circle>
<circle cx="677" cy="310" r="3.1" fill="#ffd27a"><animate attributeName="cy" values="310;-20" dur="3.6s" begin="-1.0s" repeatCount="indefinite"/><animate attributeName="cx" values="677;653;667" dur="3.6s" begin="-1.1s" repeatCount="indefinite"/><animate attributeName="opacity" values="0;1;.8;0" dur="3.6s" begin="-1.8s" repeatCount="indefinite"/></circle>
<circle cx="984" cy="310" r="1.6" fill="#ffd27a"><animate attributeName="cy" values="310;-20" dur="5.9s" begin="-3.4s" repeatCount="indefinite"/><animate attributeName="cx" values="984;976;981" dur="5.9s" begin="-3.0s" repeatCount="indefinite"/><animate attributeName="opacity" values="0;1;.8;0" dur="5.9s" begin="-3.5s" repeatCount="indefinite"/></circle>
<circle cx="215" cy="310" r="2.4" fill="#ffd27a"><animate attributeName="cy" values="310;-20" dur="4.6s" begin="-2.7s" repeatCount="indefinite"/><animate attributeName="cx" values="215;249;229" dur="4.6s" begin="-1.9s" repeatCount="indefinite"/><animate attributeName="opacity" values="0;1;.8;0" dur="4.6s" begin="-4.5s" repeatCount="indefinite"/></circle>
<circle cx="215" cy="310" r="1.2" fill="#ffd27a"><animate attributeName="cy" values="310;-20" dur="3.5s" begin="-0.3s" repeatCount="indefinite"/><animate attributeName="cx" values="215;238;224" dur="3.5s" begin="-2.6s" repeatCount="indefinite"/><animate attributeName="opacity" values="0;1;.8;0" dur="3.5s" begin="-0.3s" repeatCount="indefinite"/></circle>
<circle cx="357" cy="310" r="2.4" fill="#ffd27a"><animate attributeName="cy" values="310;-20" dur="3.1s" begin="-3.1s" repeatCount="indefinite"/><animate attributeName="cx" values="357;349;354" dur="3.1s" begin="-2.2s" repeatCount="indefinite"/><animate attributeName="opacity" values="0;1;.8;0" dur="3.1s" begin="-1.2s" repeatCount="indefinite"/></circle></g>
</g>
<rect x=".5" y=".5" width="1199" height="299" rx="16" fill="none" stroke="#ff4a0a" stroke-opacity=".35"/>
</svg>