<svg xmlns="http://www.w3.org/2000/svg" width="900" height="110" viewBox="0 0 900 110">
<title>Currently</title>
<defs>
<radialGradient id="flameHot" cx=".5" cy=".95" r=".85" fx=".5" fy="1">
  <stop offset="0" stop-color="#fffbe0"/><stop offset=".18" stop-color="#ffd25a"/>
  <stop offset=".42" stop-color="#ff7a10"/><stop offset=".7" stop-color="#d42a04"/>
  <stop offset="1" stop-color="#7a0800" stop-opacity="0"/>
</radialGradient>
<radialGradient id="flameDeep" cx=".5" cy=".95" r=".85" fx=".5" fy="1">
  <stop offset="0" stop-color="#ff9a2a"/><stop offset=".35" stop-color="#e2360a"/>
  <stop offset=".7" stop-color="#8f1003"/><stop offset="1" stop-color="#3a0300" stop-opacity="0"/>
</radialGradient>
<linearGradient id="metal" x1="0" y1="1" x2="0" y2="0">
  <stop offset="0" stop-color="#fff1b8"/><stop offset=".3" stop-color="#ffb21f"/>
  <stop offset=".62" stop-color="#ff4a0a"/><stop offset="1" stop-color="#7c0b02"/>
</linearGradient>
<filter id="emberGlow" x="-50%" y="-50%" width="200%" height="200%">
  <feGaussianBlur stdDeviation="2.2" result="b"/>
  <feMerge><feMergeNode in="b"/><feMergeNode in="b"/><feMergeNode in="SourceGraphic"/></feMerge>
</filter>

<filter id="fire" x="-10%" y="-40%" width="120%" height="150%">
  <feTurbulence type="fractalNoise" baseFrequency="0.03 0.12" numOctaves="3" seed="4" result="n">
    <animate attributeName="baseFrequency" values="0.03 0.12;0.04 0.18;0.03 0.12" dur="2s" repeatCount="indefinite"/>
  </feTurbulence>
  <feDisplacementMap in="SourceGraphic" in2="n" scale="10" xChannelSelector="R" yChannelSelector="G" result="d"/>
  <feGaussianBlur in="d" stdDeviation="0.6"/>
</filter>
<filter id="hot" x="-10%" y="-60%" width="120%" height="220%">
  <feGaussianBlur stdDeviation="6" result="b"/>
  <feColorMatrix in="b" type="matrix" values="1 0 0 0 0  0 .4 0 0 0  0 0 0 0 0  0 0 0 1.3 0" result="g"/>
  <feMerge><feMergeNode in="g"/><feMergeNode in="SourceGraphic"/></feMerge>
</filter>
<linearGradient id="fadeLine" x1="0" x2="1"><stop offset="0" stop-color="#ff4a0a" stop-opacity="0"/><stop offset=".5" stop-color="#ffb21f"/><stop offset="1" stop-color="#ff4a0a" stop-opacity="0"/></linearGradient>
</defs>
<clipPath id="band"><rect width="900" height="110" rx="14"/></clipPath>
<g clip-path="url(#band)">
<rect width="900" height="110" fill="#0b0203"/>
<radialGradient id="heatS" cx=".5" cy=".5" r=".5"><stop offset="0" stop-color="#ff4a0a" stop-opacity=".45"/><stop offset="1" stop-color="#ff4a0a" stop-opacity="0"/></radialGradient>
<ellipse cx="450.0" cy="110" rx="450.0" ry="80" fill="url(#heatS)"/>
<g filter="url(#fire)" opacity=".75"><path d="M0 0 C-20.0 -11.1 -7.0 -23.0 0 -37.0 C7.0 -23.0 20.0 -11.1 0 0Z" fill="url(#flameDeep)" transform="translate(-5.2 116)"><animateTransform attributeName="transform" type="scale" additive="sum" values="1 1;0.86 1.22;1.05 .92;1 1" dur="1.24s" begin="-0.87s" repeatCount="indefinite"/></path>
<path d="M0 0 C-16.4 -17.7 -5.7 -36.6 0 -59.1 C5.7 -36.6 16.4 -17.7 0 0Z" fill="url(#flameDeep)" transform="translate(25.4 116)"><animateTransform attributeName="transform" type="scale" additive="sum" values="1 1;0.89 1.37;1.05 .92;1 1" dur="0.91s" begin="-0.03s" repeatCount="indefinite"/></path>
<path d="M0 0 C-18.4 -15.4 -6.4 -31.9 0 -51.4 C6.4 -31.9 18.4 -15.4 0 0Z" fill="url(#flameDeep)" transform="translate(70.5 116)"><animateTransform attributeName="transform" type="scale" additive="sum" values="1 1;0.87 1.15;1.05 .92;1 1" dur="1.39s" begin="-0.11s" repeatCount="indefinite"/></path>
<path d="M0 0 C-23.2 -11.1 -8.1 -22.9 0 -37.0 C8.1 -22.9 23.2 -11.1 0 0Z" fill="url(#flameDeep)" transform="translate(86.1 116)"><animateTransform attributeName="transform" type="scale" additive="sum" values="1 1;0.85 1.20;1.05 .92;1 1" dur="1.48s" begin="-1.34s" repeatCount="indefinite"/></path>
<path d="M0 0 C-24.0 -19.3 -8.4 -39.9 0 -64.4 C8.4 -39.9 24.0 -19.3 0 0Z" fill="url(#flameDeep)" transform="translate(121.0 116)"><animateTransform attributeName="transform" type="scale" additive="sum" values="1 1;0.95 1.26;1.05 .92;1 1" dur="0.91s" begin="-0.81s" repeatCount="indefinite"/></path>
<path d="M0 0 C-22.6 -14.2 -7.9 -29.3 0 -47.3 C7.9 -29.3 22.6 -14.2 0 0Z" fill="url(#flameDeep)" transform="translate(163.4 116)"><animateTransform attributeName="transform" type="scale" additive="sum" values="1 1;0.88 1.27;1.05 .92;1 1" dur="1.08s" begin="-0.93s" repeatCount="indefinite"/></path>
<path d="M0 0 C-17.2 -19.1 -6.0 -39.5 0 -63.6 C6.0 -39.5 17.2 -19.1 0 0Z" fill="url(#flameDeep)" transform="translate(191.9 116)"><animateTransform attributeName="transform" type="scale" additive="sum" values="1 1;0.85 1.20;1.05 .92;1 1" dur="1.03s" begin="-0.13s" repeatCount="indefinite"/></path>
<path d="M0 0 C-23.0 -20.9 -8.1 -43.1 0 -69.6 C8.1 -43.1 23.0 -20.9 0 0Z" fill="url(#flameDeep)" transform="translate(210.7 116)"><animateTransform attributeName="transform" type="scale" additive="sum" values="1 1;0.92 1.22;1.05 .92;1 1" dur="1.15s" begin="-0.20s" repeatCount="indefinite"/></path>
<path d="M0 0 C-14.3 -18.6 -5.0 -38.5 0 -62.1 C5.0 -38.5 14.3 -18.6 0 0Z" fill="url(#flameDeep)" transform="translate(259.9 116)"><animateTransform attributeName="transform" type="scale" additive="sum" values="1 1;0.89 1.38;1.05 .92;1 1" dur="1.18s" begin="-0.53s" repeatCount="indefinite"/></path>
<path d="M0 0 C-16.1 -19.6 -5.6 -40.6 0 -65.4 C5.6 -40.6 16.1 -19.6 0 0Z" fill="url(#flameDeep)" transform="translate(283.8 116)"><animateTransform attributeName="transform" type="scale" additive="sum" values="1 1;0.87 1.28;1.05 .92;1 1" dur="1.24s" begin="-0.77s" repeatCount="indefinite"/></path>
<path d="M0 0 C-22.2 -18.8 -7.8 -38.8 0 -62.6 C7.8 -38.8 22.2 -18.8 0 0Z" fill="url(#flameDeep)" transform="translate(322.7 116)"><animateTransform attributeName="transform" type="scale" additive="sum" values="1 1;0.94 1.38;1.05 .92;1 1" dur="1.29s" begin="-0.35s" repeatCount="indefinite"/></path>
<path d="M0 0 C-25.9 -15.2 -9.1 -31.3 0 -50.5 C9.1 -31.3 25.9 -15.2 0 0Z" fill="url(#flameDeep)" transform="translate(343.9 116)"><animateTransform attributeName="transform" type="scale" additive="sum" values="1 1;0.92 1.16;1.05 .92;1 1" dur="1.36s" begin="-0.16s" repeatCount="indefinite"/></path>
<path d="M0 0 C-18.1 -15.2 -6.3 -31.4 0 -50.6 C6.3 -31.4 18.1 -15.2 0 0Z" fill="url(#flameDeep)" transform="translate(371.9 116)"><animateTransform attributeName="transform" type="scale" additive="sum" values="1 1;0.91 1.38;1.05 .92;1 1" dur="1.22s" begin="-0.41s" repeatCount="indefinite"/></path>
<path d="M0 0 C-19.4 -15.4 -6.8 -31.8 0 -51.2 C6.8 -31.8 19.4 -15.4 0 0Z" fill="url(#flameDeep)" transform="translate(396.9 116)"><animateTransform attributeName="transform" type="scale" additive="sum" values="1 1;0.85 1.30;1.05 .92;1 1" dur="1.23s" begin="-1.08s" repeatCount="indefinite"/></path>
<path d="M0 0 C-17.9 -15.0 -6.2 -30.9 0 -49.9 C6.2 -30.9 17.9 -15.0 0 0Z" fill="url(#flameDeep)" transform="translate(432.4 116)"><animateTransform attributeName="transform" type="scale" additive="sum" values="1 1;0.85 1.27;1.05 .92;1 1" dur="1.02s" begin="-0.30s" repeatCount="indefinite"/></path>
<path d="M0 0 C-19.1 -14.4 -6.7 -29.8 0 -48.0 C6.7 -29.8 19.1 -14.4 0 0Z" fill="url(#flameDeep)" transform="translate(469.8 116)"><animateTransform attributeName="transform" type="scale" additive="sum" values="1 1;0.91 1.37;1.05 .92;1 1" dur="1.19s" begin="-0.52s" repeatCount="indefinite"/></path>
<path d="M0 0 C-25.8 -16.6 -9.0 -34.4 0 -55.5 C9.0 -34.4 25.8 -16.6 0 0Z" fill="url(#flameDeep)" transform="translate(498.1 116)"><animateTransform attributeName="transform" type="scale" additive="sum" values="1 1;0.87 1.24;1.05 .92;1 1" dur="1.16s" begin="-0.07s" repeatCount="indefinite"/></path>
<path d="M0 0 C-19.0 -12.2 -6.6 -25.3 0 -40.8 C6.6 -25.3 19.0 -12.2 0 0Z" fill="url(#flameDeep)" transform="translate(528.5 116)"><animateTransform attributeName="transform" type="scale" additive="sum" values="1 1;0.92 1.28;1.05 .92;1 1" dur="1.44s" begin="-0.35s" repeatCount="indefinite"/></path>
<path d="M0 0 C-21.0 -20.5 -7.4 -42.5 0 -68.5 C7.4 -42.5 21.0 -20.5 0 0Z" fill="url(#flameDeep)" transform="translate(559.3 116)"><animateTransform attributeName="transform" type="scale" additive="sum" values="1 1;0.89 1.23;1.05 .92;1 1" dur="1.65s" begin="-1.10s" repeatCount="indefinite"/></path>
<path d="M0 0 C-22.8 -17.6 -8.0 -36.5 0 -58.8 C8.0 -36.5 22.8 -17.6 0 0Z" fill="url(#flameDeep)" transform="translate(593.6 116)"><animateTransform attributeName="transform" type="scale" additive="sum" values="1 1;0.89 1.30;1.05 .92;1 1" dur="1.28s" begin="-0.88s" repeatCount="indefinite"/></path>
<path d="M0 0 C-23.5 -10.5 -8.2 -21.7 0 -34.9 C8.2 -21.7 23.5 -10.5 0 0Z" fill="url(#flameDeep)" transform="translate(628.7 116)"><animateTransform attributeName="transform" type="scale" additive="sum" values="1 1;0.95 1.28;1.05 .92;1 1" dur="1.58s" begin="-0.40s" repeatCount="indefinite"/></path>
<path d="M0 0 C-19.9 -14.7 -7.0 -30.4 0 -49.0 C7.0 -30.4 19.9 -14.7 0 0Z" fill="url(#flameDeep)" transform="translate(656.3 116)"><animateTransform attributeName="transform" type="scale" additive="sum" values="1 1;0.92 1.19;1.05 .92;1 1" dur="1.36s" begin="-1.23s" repeatCount="indefinite"/></path>
<path d="M0 0 C-16.4 -17.8 -5.8 -36.8 0 -59.3 C5.8 -36.8 16.4 -17.8 0 0Z" fill="url(#flameDeep)" transform="translate(687.5 116)"><animateTransform attributeName="transform" type="scale" additive="sum" values="1 1;0.95 1.23;1.05 .92;1 1" dur="1.21s" begin="-0.54s" repeatCount="indefinite"/></path>
<path d="M0 0 C-14.8 -18.0 -5.2 -37.1 0 -59.9 C5.2 -37.1 14.8 -18.0 0 0Z" fill="url(#flameDeep)" transform="translate(704.4 116)"><animateTransform attributeName="transform" type="scale" additive="sum" values="1 1;0.91 1.20;1.05 .92;1 1" dur="1.58s" begin="-1.12s" repeatCount="indefinite"/></path>
<path d="M0 0 C-20.3 -17.2 -7.1 -35.5 0 -57.2 C7.1 -35.5 20.3 -17.2 0 0Z" fill="url(#flameDeep)" transform="translate(741.3 116)"><animateTransform attributeName="transform" type="scale" additive="sum" values="1 1;0.93 1.22;1.05 .92;1 1" dur="1.20s" begin="-0.99s" repeatCount="indefinite"/></path>
<path d="M0 0 C-20.7 -11.3 -7.2 -23.4 0 -37.7 C7.2 -23.4 20.7 -11.3 0 0Z" fill="url(#flameDeep)" transform="translate(775.8 116)"><animateTransform attributeName="transform" type="scale" additive="sum" values="1 1;0.91 1.30;1.05 .92;1 1" dur="1.40s" begin="-1.35s" repeatCount="indefinite"/></path>
<path d="M0 0 C-18.7 -21.0 -6.5 -43.4 0 -70.0 C6.5 -43.4 18.7 -21.0 0 0Z" fill="url(#flameDeep)" transform="translate(809.9 116)"><animateTransform attributeName="transform" type="scale" additive="sum" values="1 1;0.87 1.26;1.05 .92;1 1" dur="1.07s" begin="-0.95s" repeatCount="indefinite"/></path>
<path d="M0 0 C-17.4 -17.6 -6.1 -36.3 0 -58.6 C6.1 -36.3 17.4 -17.6 0 0Z" fill="url(#flameDeep)" transform="translate(827.5 116)"><animateTransform attributeName="transform" type="scale" additive="sum" values="1 1;0.87 1.17;1.05 .92;1 1" dur="1.30s" begin="-0.29s" repeatCount="indefinite"/></path>
<path d="M0 0 C-16.9 -12.2 -5.9 -25.1 0 -40.5 C5.9 -25.1 16.9 -12.2 0 0Z" fill="url(#flameDeep)" transform="translate(874.8 116)"><animateTransform attributeName="transform" type="scale" additive="sum" values="1 1;0.93 1.19;1.05 .92;1 1" dur="1.31s" begin="-0.32s" repeatCount="indefinite"/></path>
<path d="M0 0 C-18.5 -15.6 -6.5 -32.2 0 -51.9 C6.5 -32.2 18.5 -15.6 0 0Z" fill="url(#flameDeep)" transform="translate(898.3 116)"><animateTransform attributeName="transform" type="scale" additive="sum" values="1 1;0.86 1.19;1.05 .92;1 1" dur="1.27s" begin="-0.78s" repeatCount="indefinite"/></path></g>
</g>
<path d="M302.5238002929687 57.152 303.26868505859375 64.94394775390624Q302.3368325195312 66.48236865234375 300.7402641601562 67.76190014648438Q299.1436958007812 69.041431640625 296.7189799804687 69.82871582031251Q294.2942641601562 70.616 290.9046850585937 70.616Q285.26794775390624 70.572 281.0851843261719 68.68039477539062Q276.90242089843747 66.78878955078125 274.6352365722656 63.22046850585937Q272.3680522460937 59.6521474609375 272.3680522460937 54.556Q272.3680522460937 49.583210449218754 274.59555761718747 45.997210449218755Q276.8230629882812 42.41121044921875 280.99246850585934 40.49760522460937Q285.16187402343746 38.584 290.99189550781244 38.584Q294.601474609375 38.584 297.43162207031247 39.24753149414063Q300.26176953124997 39.91106298828125 302.12705371093745 40.7981259765625L301.94631640624993 48.770021484375H301.55031640625Q300.29945312499996 44.2615791015625 297.6963901367187 42.43636865234375Q295.0933271484375 40.611158203125 291.5929799804687 40.611158203125Q288.2159907226562 40.611158203125 285.80228564453125 42.278047607421875Q283.38858056640623 43.94493701171875 282.0917648925781 47.02846850585938Q280.79494921875 50.112 280.79494921875 54.4412841796875Q280.79494921875 58.770568359375 282.0210490722656 61.911457763671876Q283.24714892578123 65.05234716796875 285.5107802734375 66.77659448242187Q287.7744116210937 68.500841796875 290.9046850585937 68.588841796875Q294.38226416015624 68.588841796875 296.6022902832031 67.51123657226563Q298.82231640624997 66.43363134765625 300.13130566406244 63.91306298828125Q301.44029492187497 61.39249462890625 302.1718002929687 57.152ZM325.49894921874994 39.2V58.56Q325.49894921874994 61.6572841796875 326.5058386230468 63.900494628906245Q327.5127280273437 66.143705078125 329.35954370117184 67.3442734375Q331.206359375 68.544841796875 333.76621191406247 68.544841796875Q336.3959907226562 68.544841796875 338.2600905761718 67.4102734375Q340.1241904296875 66.275705078125 341.14404296875 64.16881567382812Q342.16389550781247 62.06192626953125 342.16389550781247 59.132000000000005V39.2H345.64621191406246V58.7784208984375Q345.64621191406246 62.422568359375 344.1191750488281 65.08496313476563Q342.5921381835937 67.74735791015625 339.69599072265623 69.18167895507813Q336.7998432617187 70.616 332.70547460937496 70.616Q327.67451611328124 70.616 324.323431640625 69.186Q320.97234716796873 67.756 319.3305944824218 65.1112841796875Q317.68884179687495 62.466568359375 317.68884179687495 58.8224208984375V39.2ZM317.82084179687496 39.2V41.84H317.68884179687495Q317.68884179687495 40.872 317.00684179687494 40.256Q316.324841796875 39.64 315.35684179687496 39.64Q315.35684179687496 39.64 315.004841796875 39.64Q314.65284179687495 39.64 314.65284179687495 39.64V39.2ZM328.53494921874994 39.2V39.64Q328.53494921874994 39.64 328.18294921874997 39.64Q327.83094921875 39.64 327.83094921875 39.64Q326.86294921875 39.64 326.18094921874996 40.256Q325.49894921874994 40.872 325.49894921874994 41.84H325.41094921875V39.2ZM342.2958955078125 39.2V41.84H342.16389550781247Q342.16389550781247 40.872 341.4818955078125 40.256Q340.7998955078125 39.64 339.8318955078125 39.64Q339.8318955078125 39.64 339.47989550781244 39.64Q339.12789550781247 39.64 339.12789550781247 39.64V39.2ZM348.68221191406246 39.2V39.64Q348.68221191406246 39.64 348.3302119140625 39.64Q347.97821191406246 39.64 347.97821191406246 39.64Q347.01021191406244 39.64 346.3282119140624 40.256Q345.64621191406246 40.872 345.64621191406246 41.84H345.55821191406244V39.2ZM370.14951757812497 39.2H375.646359375Q377.626359375 39.2 379.6036174316406 39.595210449218754Q381.5808754882812 39.990420898437506 383.1758862304687 40.92698925781251Q384.7708969726562 41.8635576171875 385.7361550292968 43.46995239257812Q386.7014130859375 45.07634716796875 386.7014130859375 47.50735791015625Q386.7014130859375 49.26577880859375 386.01195532226564 51.078026123046875Q385.32249755859374 52.8902734375 383.7699291992187 54.20634716796875Q382.2173608398437 55.5224208984375 379.57499218749996 55.876000000000005Q381.20693994140623 56.36078955078125 382.47587695312495 57.57197387695312Q383.74481396484373 58.783158203125 384.5108876953125 60.0167373046875Q384.581603515625 60.122811035156246 384.9811350097656 60.786342529296874Q385.38066650390624 61.4498740234375 385.9998032226562 62.416689697265625Q386.6189399414062 63.38350537109375 387.29543457031247 64.3947158203125Q387.9719291992187 65.40592626953125 388.59657128906247 66.216Q389.58264501953124 67.50222119140625 390.35657128906246 68.21486328124999Q391.13049755859373 68.92750537109374 391.9523500976562 69.22607373046876Q392.7742026367187 69.52464208984375 393.8734130859375 69.56V70.0H388.97835937499997Q386.45934863281246 70.0 384.3665852050781 69.63150537109375Q382.2738217773437 69.2630107421875 380.6430583496093 68.23725805664063Q379.01229492187497 67.21150537109375 377.77792626953124 65.2086943359375Q377.36306298828123 64.53768359375 376.99888940429685 63.737041503906255Q376.63471582031246 62.9363994140625 376.29804760742184 62.10629956054687Q375.9613793945312 61.27619970703125 375.68206909179685 60.503457763671875Q375.4027587890625 59.7307158203125 375.184337890625 59.0581474609375Q374.9659169921875 58.3855791015625 374.80720117187496 57.9Q374.28942236328123 56.41106298828125 373.5956435546875 55.769926269531254Q372.90186474609374 55.12878955078125 372.173517578125 54.952V54.512Q372.31494921875 54.512 372.6256911621093 54.516321044921874Q372.9364331054687 54.52064208984375 373.19727490234374 54.512Q374.41199072265624 54.503357910156254 375.45776953125 53.98321044921875Q376.50354833984375 53.46306298828125 377.26725341796873 52.318273437500004Q378.0309584960937 51.173483886718756 378.3287373046875 49.26419970703125Q378.390021484375 48.8862734375 378.4426635742187 48.40777880859375Q378.49530566406247 47.9292841796875 378.4513056640625 47.29600000000001Q378.3012319335937 44.0918525390625 376.86258984374996 42.716468505859375Q375.4239477539062 41.34108447265625 373.348884765625 41.315158203125Q372.93011669921873 41.2978740234375 372.3923117675781 41.302195068359374Q371.85450683593746 41.30651611328125 371.3634438476562 41.30651611328125Q370.87238085937497 41.30651611328125 370.58951757812497 41.30651611328125Q370.58951757812497 41.2978740234375 370.47951757812496 40.77340551757813Q370.36951757812494 40.24893701171875 370.2595175781249 39.72446850585938Q370.14951757812497 39.2 370.14951757812497 39.2ZM370.721517578125 39.2V70.0H362.8760522460937V39.2ZM363.0080522460937 66.788V70.0H359.48805224609373V69.56Q359.55876806640623 69.56 359.79173120117184 69.56Q360.02469433593745 69.56 360.06005224609373 69.56Q361.20405224609374 69.56 362.0180522460937 68.74600000000001Q362.8320522460937 67.932 362.8760522460937 66.788ZM363.0080522460937 42.412000000000006H362.8760522460937Q362.8320522460937 41.268 362.0180522460937 40.454Q361.20405224609374 39.64 360.06005224609373 39.64Q360.02469433593745 39.64 359.79173120117184 39.64Q359.55876806640623 39.64 359.48805224609373 39.64V39.2H363.0080522460937ZM370.58951757812497 66.788H370.721517578125Q370.721517578125 67.932 371.55751757812493 68.74600000000001Q372.39351757812494 69.56 373.53751757812495 69.56Q373.60823339843745 69.56 373.8191965332031 69.56Q374.03015966796875 69.56 374.06551757812497 69.56V70.0H370.58951757812497ZM411.949517578125 39.2H417.446359375Q419.426359375 39.2 421.4036174316406 39.595210449218754Q423.3808754882812 39.990420898437506 424.97588623046875 40.92698925781251Q426.5708969726562 41.8635576171875 427.5361550292969 43.46995239257812Q428.5014130859375 45.07634716796875 428.5014130859375 47.50735791015625Q428.5014130859375 49.26577880859375 427.8119553222656 51.078026123046875Q427.12249755859375 52.8902734375 425.56992919921873 54.20634716796875Q424.0173608398437 55.5224208984375 421.37499218749997 55.876000000000005Q423.00693994140624 56.36078955078125 424.275876953125 57.57197387695312Q425.54481396484374 58.783158203125 426.3108876953125 60.0167373046875Q426.381603515625 60.122811035156246 426.78113500976565 60.786342529296874Q427.18066650390625 61.4498740234375 427.79980322265624 62.416689697265625Q428.4189399414062 63.38350537109375 429.0954345703125 64.3947158203125Q429.77192919921873 65.40592626953125 430.3965712890625 66.216Q431.38264501953125 67.50222119140625 432.1565712890625 68.21486328124999Q432.93049755859374 68.92750537109374 433.75235009765623 69.22607373046876Q434.5742026367187 69.52464208984375 435.67341308593745 69.56V70.0H430.778359375Q428.2593486328125 70.0 426.1665852050781 69.63150537109375Q424.0738217773437 69.2630107421875 422.4430583496094 68.23725805664063Q420.812294921875 67.21150537109375 419.57792626953125 65.2086943359375Q419.16306298828124 64.53768359375 418.79888940429686 63.737041503906255Q418.4347158203125 62.9363994140625 418.09804760742185 62.10629956054687Q417.7613793945312 61.27619970703125 417.48206909179686 60.503457763671875Q417.2027587890625 59.7307158203125 416.984337890625 59.0581474609375Q416.7659169921875 58.3855791015625 416.607201171875 57.9Q416.08942236328124 56.41106298828125 415.39564355468747 55.769926269531254Q414.70186474609375 55.12878955078125 413.973517578125 54.952V54.512Q414.11494921875 54.512 414.4256911621094 54.516321044921874Q414.73643310546873 54.52064208984375 414.99727490234375 54.512Q416.21199072265625 54.503357910156254 417.25776953125 53.98321044921875Q418.30354833984376 53.46306298828125 419.06725341796874 52.318273437500004Q419.83095849609373 51.173483886718756 420.1287373046875 49.26419970703125Q420.190021484375 48.8862734375 420.24266357421874 48.40777880859375Q420.2953056640625 47.9292841796875 420.2513056640625 47.29600000000001Q420.10123193359374 44.0918525390625 418.66258984374997 42.716468505859375Q417.22394775390626 41.34108447265625 415.148884765625 41.315158203125Q414.73011669921874 41.2978740234375 414.1923117675781 41.302195068359374Q413.65450683593747 41.30651611328125 413.16344384765625 41.30651611328125Q412.672380859375 41.30651611328125 412.389517578125 41.30651611328125Q412.389517578125 41.2978740234375 412.279517578125 40.77340551757813Q412.169517578125 40.24893701171875 412.059517578125 39.72446850585938Q411.949517578125 39.2 411.949517578125 39.2ZM412.521517578125 39.2V70.0H404.6760522460937V39.2ZM404.8080522460937 66.788V70.0H401.28805224609374V69.56Q401.35876806640624 69.56 401.59173120117185 69.56Q401.82469433593747 69.56 401.86005224609374 69.56Q403.00405224609375 69.56 403.81805224609377 68.74600000000001Q404.63205224609374 67.932 404.6760522460937 66.788ZM404.8080522460937 42.412000000000006H404.6760522460937Q404.63205224609374 41.268 403.81805224609377 40.454Q403.00405224609375 39.64 401.86005224609374 39.64Q401.82469433593747 39.64 401.59173120117185 39.64Q401.35876806640624 39.64 401.28805224609374 39.64V39.2H404.8080522460937ZM412.389517578125 66.788H412.521517578125Q412.521517578125 67.932 413.357517578125 68.74600000000001Q414.19351757812495 69.56 415.33751757812496 69.56Q415.40823339843746 69.56 415.6191965332031 69.56Q415.83015966796876 69.56 415.865517578125 69.56V70.0H412.389517578125ZM454.1093701171875 39.2V70.0H446.2992626953125V39.2ZM465.635791015625 67.928841796875 467.050107421875 70.0H453.9773701171875V67.928841796875ZM464.0973701171875 53.8064208984375V55.8335791015625H453.9773701171875V53.8064208984375ZM466.34294921875 39.2V41.271158203125H453.9773701171875V39.2ZM469.02694921875 60.3969462890625 467.182107421875 70.0H458.1102119140625L459.6942119140625 67.928841796875Q461.84942236328123 67.928841796875 463.6062856445312 67.02605224609376Q465.3631489257812 66.1232626953125 466.6407280273437 64.43200463867188Q467.91830712890624 62.74074658203125 468.60054841496395 60.3969462890625ZM464.0973701171875 55.7455791015625V60.417474609375H463.6573701171875V60.1110537109375Q463.6573701171875 58.27639013671875 462.45796459960934 57.07266357421875Q461.25855908203124 55.86893701171875 459.4238955078125 55.8335791015625V55.7455791015625ZM464.0973701171875 49.222525390625V53.8944208984375H459.4238955078125V53.8064208984375Q461.25855908203124 53.7624208984375 462.4756435546875 52.54101538085938Q463.6927280273437 51.31960986328125 463.6573701171875 49.484946289062506V49.222525390625ZM466.34294921875 41.13915820312501V46.7806328125H465.90294921875V46.3422119140625Q465.90294921875 44.0133271484375 464.5538647460937 42.64224267578125Q463.2047802734375 41.271158203125 460.8318955078125 41.227158203125V41.13915820312501ZM466.34294921875 38.408V39.684L460.97494921875 39.2Q461.94294921875 39.2 463.02094921875005 39.068000000000005Q464.09894921875 38.93600000000001 465.02294921875 38.760000000000005Q465.94694921875 38.584 466.34294921875 38.408ZM446.4312626953125 66.788V70.0H442.9112626953125V69.56Q442.9112626953125 69.56 443.1972626953125 69.56Q443.4832626953125 69.56 443.4832626953125 69.56Q444.6272626953125 69.56 445.4412626953125 68.74600000000001Q446.25526269531247 67.932 446.2992626953125 66.788ZM446.4312626953125 42.412000000000006H446.2992626953125Q446.2639047851562 41.268 445.4384016647339 40.454Q444.6128985443115 39.64 443.4832626953125 39.64Q443.4832626953125 39.64 443.20158374023435 39.64Q442.91990478515623 39.64 442.91990478515623 39.64L442.9112626953125 39.2H446.4312626953125ZM482.32662060546875 38.540000000000006 511.21426416015623 65.112841796875 511.75169580078125 70.616 482.86405224609376 44.087158203125ZM482.5560522460937 66.876V70.0H478.9040522460937V69.56Q478.9040522460937 69.56 479.30005224609374 69.56Q479.69605224609376 69.56 479.74005224609374 69.56Q480.84005224609376 69.56 481.63205224609374 68.768Q482.42405224609377 67.976 482.42405224609377 66.876ZM490.10531787109375 66.876Q490.10531787109375 67.976 490.8973178710937 68.768Q491.68931787109375 69.56 492.7893178710937 69.56Q492.83331787109375 69.56 493.2293178710937 69.56Q493.6253178710937 69.56 493.6253178710937 69.56V70.0H489.97331787109374V66.876ZM482.32662060546875 38.540000000000006 490.06131787109376 46.661265625 490.10531787109375 70.0H482.42405224609377V44.040000000000006Q482.42405224609377 41.513136718750005 482.15533642578123 40.026568359375005Q481.88662060546875 38.540000000000006 481.88662060546875 38.540000000000006ZM511.61026416015625 39.2V64.984Q511.61026416015625 66.71022119140625 511.7513010253906 67.99054223632812Q511.892337890625 69.27086328125 512.0200168457031 69.943431640625Q512.1476958007812 70.616 512.1476958007812 70.616H511.75169580078125L503.97299853515625 61.95493408203125V39.2ZM515.1302641601562 39.2V39.64Q515.1302641601562 39.64 514.7342641601563 39.64Q514.3382641601562 39.64 514.3382641601562 39.64Q513.2382641601563 39.64 512.4462641601563 40.410000000000004Q511.65426416015623 41.18000000000001 511.61026416015625 42.324H511.47826416015624V39.2ZM500.40899853515623 39.2H504.0609985351562V42.324H503.97299853515625Q503.92899853515627 41.18000000000001 503.15899853515623 40.410000000000004Q502.38899853515625 39.64 501.24499853515624 39.64Q501.24499853515624 39.64 500.8489985351562 39.64Q500.4529985351562 39.64 500.40899853515623 39.64ZM543.0773701171875 39.332V70.0H535.2672626953125V39.332ZM553.6782119140624 39.156000000000006V41.183158203125004H524.6664208984375V39.156000000000006ZM553.6782119140624 41.051158203125V46.736632812500005L553.2382119140625 46.6926328125V46.298211914062506Q553.2382119140625 43.960685058593754 551.8848063964844 42.59392163085938Q550.5314008789062 41.227158203125 548.1671582031249 41.183158203125004V41.051158203125ZM553.6782119140624 38.364000000000004V39.64L548.3102119140625 39.156000000000006Q549.2782119140625 39.156000000000006 550.3562119140624 39.024Q551.4342119140625 38.892 552.3582119140625 38.71600000000001Q553.2822119140625 38.540000000000006 553.6782119140624 38.364000000000004ZM535.3992626953125 66.788V70.0H531.8792626953125V69.56Q531.8792626953125 69.56 532.1652626953125 69.56Q532.4512626953125 69.56 532.4512626953125 69.56Q533.5952626953125 69.56 534.4092626953125 68.74600000000001Q535.2232626953125 67.932 535.2672626953125 66.788ZM542.9453701171875 66.788H543.0773701171875Q543.1213701171874 67.932 543.9353701171874 68.74600000000001Q544.7493701171875 69.56 545.8933701171875 69.56Q545.8933701171875 69.56 546.1793701171875 69.56Q546.4653701171875 69.56 546.4653701171875 69.56V70.0H542.9453701171875ZM530.1774746093749 41.051158203125V41.183158203125004Q527.80458984375 41.227158203125 526.4555053710938 42.59392163085938Q525.1064208984375 43.960685058593754 525.1064208984375 46.298211914062506V46.6926328125L524.6664208984375 46.736632812500005V41.051158203125ZM524.6664208984375 38.364000000000004Q525.1064208984375 38.540000000000006 526.0084208984374 38.71600000000001Q526.9104208984375 38.892 528.0104208984375 39.024Q529.1104208984375 39.156000000000006 530.0344208984375 39.156000000000006L524.6664208984375 39.64ZM574.8453701171875 39.2V70.0H567.0352626953124V39.2ZM586.371791015625 67.928841796875 587.7861074218749 70.0H574.7133701171875V67.928841796875ZM589.76294921875 60.3969462890625 587.918107421875 70.0H578.8462119140625L580.4302119140625 67.928841796875Q582.5854223632813 67.928841796875 584.3422856445313 67.02605224609376Q586.0991489257813 66.1232626953125 587.3767280273437 64.43200463867188Q588.6543071289062 62.74074658203125 589.3365484149639 60.3969462890625ZM567.1672626953125 66.788V70.0H563.6472626953125V69.56Q563.6472626953125 69.56 563.9332626953126 69.56Q564.2192626953125 69.56 564.2192626953125 69.56Q565.3632626953125 69.56 566.1772626953125 68.74600000000001Q566.9912626953125 67.932 567.0352626953124 66.788ZM567.1672626953125 42.412000000000006H567.0352626953124Q566.9912626953125 41.268 566.1772626953125 40.454Q565.3632626953125 39.64 564.2192626953125 39.64Q564.2192626953125 39.64 563.9332626953126 39.64Q563.6472626953125 39.64 563.6472626953125 39.64V39.2H567.1672626953125ZM574.7133701171875 42.412000000000006V39.2H578.2333701171875V39.64Q578.1893701171875 39.64 577.9253701171875 39.64Q577.6613701171875 39.64 577.6613701171875 39.64Q576.5173701171875 39.64 575.7033701171874 40.454Q574.8893701171875 41.268 574.8453701171875 42.412000000000006ZM608.1612226562501 39.244 617.2802333984375 55.728294921875005 609.660251953125 56.03076806640625 599.427115234375 39.244ZM617.40122265625 55.832V70.0H609.591115234375V55.832ZM624.2432011718751 39.244H627.91722265625L616.8810751953125 56.6852841796875L614.4484853515626 56.272ZM622.439201171875 42.368Q622.7998432617187 41.752 622.62636882673 41.114000000000004Q622.4528943917411 40.476 621.9758396955217 40.058Q621.4987849993024 39.64 620.8916244768416 39.64Q620.8916244768416 39.64 620.6314128243582 39.64Q620.371201171875 39.64 620.371201171875 39.64V39.2H631.0938647460938V39.64H630.4778647460938Q629.1138647460938 39.64 627.9081857910156 40.432Q626.7025068359375 41.224000000000004 626.0338647460937 42.236000000000004ZM609.9039384765625 42.368 601.2224731445312 42.236000000000004Q600.6064731445313 41.224000000000004 599.4184731445313 40.432Q598.2304731445313 39.64 596.8224731445313 39.64H596.2064731445313V39.2H611.9805805664063V39.64Q611.9805805664063 39.64 611.7122595214844 39.64Q611.4439384765625 39.64 611.4439384765625 39.64Q610.4586523871528 39.64 609.9436164767795 40.542Q609.4285805664063 41.444 609.9039384765625 42.368ZM609.7144731445312 66.788V70.0H606.203115234375V69.56Q606.203115234375 69.56 606.467115234375 69.56Q606.731115234375 69.56 606.775115234375 69.56Q607.919115234375 69.56 608.733115234375 68.74600000000001Q609.547115234375 67.932 609.591115234375 66.788ZM617.26922265625 66.788H617.40122265625Q617.40122265625 67.932 618.23722265625 68.74600000000001Q619.07322265625 69.56 620.21722265625 69.56Q620.21722265625 69.56 620.48122265625 69.56Q620.74522265625 69.56 620.74522265625 69.56V70.0H617.26922265625Z" fill="url(#metal)" filter="url(#hot)"><animate attributeName="opacity" values="1;.86;1;.93;1" dur="2.2s" repeatCount="indefinite"/></path>
<g filter="url(#emberGlow)" clip-path="url(#band)"><circle cx="327" cy="120" r="1.6" fill="#ffd27a"><animate attributeName="cy" values="120;-20" dur="2.8s" begin="-0.9s" repeatCount="indefinite"/><animate attributeName="cx" values="327;359;340" dur="2.8s" begin="-1.1s" repeatCount="indefinite"/><animate attributeName="opacity" values="0;1;.8;0" dur="2.8s" begin="-1.3s" repeatCount="indefinite"/></circle>
<circle cx="0" cy="120" r="0.9" fill="#ffd27a"><animate attributeName="cy" values="120;-20" dur="2.2s" begin="-0.1s" repeatCount="indefinite"/><animate attributeName="cx" values="0;-14;-5" dur="2.2s" begin="-0.2s" repeatCount="indefinite"/><animate attributeName="opacity" values="0;1;.8;0" dur="2.2s" begin="-2.0s" repeatCount="indefinite"/></circle>
<circle cx="93" cy="120" r="0.9" fill="#ffd27a"><animate attributeName="cy" values="120;-20" dur="2.1s" begin="-1.2s" repeatCount="indefinite"/><animate attributeName="cx" values="93;93;93" dur="2.1s" begin="-1.0s" repeatCount="indefinite"/><animate attributeName="opacity" values="0;1;.8;0" dur="2.1s" begin="-0.3s" repeatCount="indefinite"/></circle>
<circle cx="733" cy="120" r="1.0" fill="#ffd27a"><animate attributeName="cy" values="120;-20" dur="3.1s" begin="-2.8s" repeatCount="indefinite"/><animate attributeName="cx" values="733;745;738" dur="3.1s" begin="-0.8s" repeatCount="indefinite"/><animate attributeName="opacity" values="0;1;.8;0" dur="3.1s" begin="-2.9s" repeatCount="indefinite"/></circle>
<circle cx="728" cy="120" r="1.0" fill="#ffd27a"><animate attributeName="cy" values="120;-20" dur="2.3s" begin="-1.2s" repeatCount="indefinite"/><animate attributeName="cx" values="728;714;723" dur="2.3s" begin="-0.9s" repeatCount="indefinite"/><animate attributeName="opacity" values="0;1;.8;0" dur="2.3s" begin="-1.5s" repeatCount="indefinite"/></circle>
<circle cx="501" cy="120" r="1.3" fill="#ffd27a"><animate attributeName="cy" values="120;-20" dur="3.0s" begin="-3.0s" repeatCount="indefinite"/><animate attributeName="cx" values="501;460;484" dur="3.0s" begin="-0.5s" repeatCount="indefinite"/><animate attributeName="opacity" values="0;1;.8;0" dur="3.0s" begin="-0.9s" repeatCount="indefinite"/></circle>
<circle cx="388" cy="120" r="1.6" fill="#ffd27a"><animate attributeName="cy" values="120;-20" dur="2.2s" begin="-1.0s" repeatCount="indefinite"/><animate attributeName="cx" values="388;414;398" dur="2.2s" begin="-1.2s" repeatCount="indefinite"/><animate attributeName="opacity" values="0;1;.8;0" dur="2.2s" begin="-2.0s" repeatCount="indefinite"/></circle>
<circle cx="399" cy="120" r="1.7" fill="#ffd27a"><animate attributeName="cy" values="120;-20" dur="2.5s" begin="-1.1s" repeatCount="indefinite"/><animate attributeName="cx" values="399;398;398" dur="2.5s" begin="-1.0s" repeatCount="indefinite"/><animate attributeName="opacity" values="0;1;.8;0" dur="2.5s" begin="-0.4s" repeatCount="indefinite"/></circle>
<circle cx="425" cy="120" r="1.3" fill="#ffd27a"><animate attributeName="cy" values="120;-20" dur="2.9s" begin="-0.5s" repeatCount="indefinite"/><animate attributeName="cx" values="425;376;406" dur="2.9s" begin="-0.1s" repeatCount="indefinite"/><animate attributeName="opacity" values="0;1;.8;0" dur="2.9s" begin="-1.0s" repeatCount="indefinite"/></circle>
<circle cx="76" cy="120" r="1.5" fill="#ffd27a"><animate attributeName="cy" values="120;-20" dur="3.1s" begin="-1.5s" repeatCount="indefinite"/><animate attributeName="cx" values="76;26;56" dur="3.1s" begin="-1.1s" repeatCount="indefinite"/><animate attributeName="opacity" values="0;1;.8;0" dur="3.1s" begin="-3.1s" repeatCount="indefinite"/></circle>
<circle cx="816" cy="120" r="0.9" fill="#ffd27a"><animate attributeName="cy" values="120;-20" dur="2.2s" begin="-2.1s" repeatCount="indefinite"/><animate attributeName="cx" values="816;788;805" dur="2.2s" begin="-1.5s" repeatCount="indefinite"/><animate attributeName="opacity" values="0;1;.8;0" dur="2.2s" begin="-2.1s" repeatCount="indefinite"/></circle>
<circle cx="128" cy="120" r="1.7" fill="#ffd27a"><animate attributeName="cy" values="120;-20" dur="2.0s" begin="-0.5s" repeatCount="indefinite"/><animate attributeName="cx" values="128;107;120" dur="2.0s" begin="-0.2s" repeatCount="indefinite"/><animate attributeName="opacity" values="0;1;.8;0" dur="2.0s" begin="-1.3s" repeatCount="indefinite"/></circle>
<circle cx="751" cy="120" r="1.4" fill="#ffd27a"><animate attributeName="cy" values="120;-20" dur="3.1s" begin="-2.6s" repeatCount="indefinite"/><animate attributeName="cx" values="751;790;767" dur="3.1s" begin="-0.6s" repeatCount="indefinite"/><animate attributeName="opacity" values="0;1;.8;0" dur="3.1s" begin="-0.8s" repeatCount="indefinite"/></circle>
<circle cx="828" cy="120" r="1.1" fill="#ffd27a"><animate attributeName="cy" values="120;-20" dur="3.1s" begin="-1.8s" repeatCount="indefinite"/><animate attributeName="cx" values="828;831;829" dur="3.1s" begin="-2.7s" repeatCount="indefinite"/><animate attributeName="opacity" values="0;1;.8;0" dur="3.1s" begin="-1.3s" repeatCount="indefinite"/></circle>
<circle cx="149" cy="120" r="1.5" fill="#ffd27a"><animate attributeName="cy" values="120;-20" dur="3.8s" begin="-3.5s" repeatCount="indefinite"/><animate attributeName="cx" values="149;189;165" dur="3.8s" begin="-0.3s" repeatCount="indefinite"/><animate attributeName="opacity" values="0;1;.8;0" dur="3.8s" begin="-3.0s" repeatCount="indefinite"/></circle>
<circle cx="757" cy="120" r="1.7" fill="#ffd27a"><animate attributeName="cy" values="120;-20" dur="3.7s" begin="-0.5s" repeatCount="indefinite"/><animate attributeName="cx" values="757;700;734" dur="3.7s" begin="-1.8s" repeatCount="indefinite"/><animate attributeName="opacity" values="0;1;.8;0" dur="3.7s" begin="-3.5s" repeatCount="indefinite"/></circle></g>
<rect x=".5" y=".5" width="899" height="109" rx="14" fill="none" stroke="#ff4a0a" stroke-opacity=".3"/>
</svg>